<?xml version="1.0" encoding="UTF-8"?>
<svg version="1.1" xmlns="http://www.w3.org/2000/svg" width="734" height="340">
<path d="M0 0 C0.89332031 0.52207031 1.78664062 1.04414062 2.70703125 1.58203125 C5.58207363 3.35995354 7.7282969 5.53408394 10 8 C11.02480469 9.10408203 11.02480469 9.10408203 12.0703125 10.23046875 C24.15506778 23.44176902 31.1613466 34.03509562 34 52 C34.13277344 52.82628906 34.26554688 53.65257813 34.40234375 54.50390625 C34.69400451 56.67338289 34.87565525 58.81454684 35 61 C35.07927734 62.36898437 35.07927734 62.36898437 35.16015625 63.765625 C35.44718639 73.69936388 33.87043844 83.27970181 32 93 C31.72736328 94.44052734 31.72736328 94.44052734 31.44921875 95.91015625 C29.01919527 105.81208865 21.8049937 118.10203657 14 124.6875 C11.46231577 127.62169739 10.46497825 130.58005886 9.12890625 134.1953125 C7.97117345 137.07161751 6.56382146 139.66417403 5.0625 142.375 C1.81892085 148.64973247 0.28130413 155.10271047 -1.17553711 161.97021484 C-2.63334808 168.55975297 -4.58144104 173.16189519 -10.125 177.375 C-13 179 -13 179 -15 179 C-15 179.66 -15 180.32 -15 181 C-35.79 181 -56.58 181 -78 181 C-79.01528166 174.90831003 -78.61171149 173.12327159 -75.75 168.1875 C-75.39446045 167.54876953 -75.0389209 166.91003906 -74.67260742 166.25195312 C-69.40039513 156.94606572 -63.58041779 147.86232744 -57.25390625 139.23828125 C-55.45636268 136.65567533 -54.55087974 135.06136936 -53.625 132.1875 C-51.791376 126.80122949 -48.31081061 122.56413717 -45 118 C-44.00338188 116.5535368 -43.02230242 115.09615015 -42.0625 113.625 C-41.66160156 113.01914063 -41.26070313 112.41328125 -40.84765625 111.7890625 C-39.71455256 109.72748715 -39.71455256 109.72748715 -40 106 C-40.6798999 105.7733667 -41.3597998 105.5467334 -42.06030273 105.31323242 C-52.37353516 101.87548828 -62.68676758 98.43774414 -73 95 C-73.27674561 95.49814209 -73.55349121 95.99628418 -73.83862305 96.50952148 C-80.32421875 108.18359375 -80.32421875 108.18359375 -81.65600586 110.5793457 C-82.56992871 112.22540293 -83.4821382 113.87241237 -84.39282227 115.52026367 C-84.83553467 116.32052979 -85.27824707 117.1207959 -85.734375 117.9453125 C-86.13237305 118.66605957 -86.53037109 119.38680664 -86.94042969 120.12939453 C-87.76897545 121.59214053 -88.65526461 123.02221279 -89.5625 124.4375 C-91.3742619 127.66716252 -92.61213927 131.03584569 -93.94921875 134.484375 C-95.35793611 137.85691767 -97.10127779 140.88067066 -99 144 C-103.75691056 142.51278199 -105.43436381 138.5426935 -107.8125 134.5 C-108.70352666 133.02601009 -109.59675257 131.55334735 -110.4921875 130.08203125 C-110.92370117 129.37127441 -111.35521484 128.66051758 -111.79980469 127.92822266 C-113.24660977 125.60379903 -114.81581235 123.39283851 -116.4375 121.1875 C-127.26360884 105.92784182 -135.42086467 91.03249278 -136 72 C-136.02835937 71.18144531 -136.05671875 70.36289063 -136.0859375 69.51953125 C-136.12691881 67.00737725 -136.07332491 64.51137804 -136 62 C-135.99484375 60.94167969 -135.9896875 59.88335937 -135.984375 58.79296875 C-135.67979825 49.10090146 -133.06824247 41.6438187 -129 33 C-128.54496094 32.03191406 -128.08992188 31.06382813 -127.62109375 30.06640625 C-120.24072527 15.57901627 -109.63831717 3.30801831 -95 -4 C-93.93652344 -4.5671875 -92.87304688 -5.134375 -91.77734375 -5.71875 C-60.49933449 -22.06783125 -29.50168927 -18.06924945 0 0 Z M-31 28 C-31.61488281 28.96292969 -32.22976562 29.92585938 -32.86328125 30.91796875 C-35.42509461 34.61316206 -38.28506343 36.80573324 -41.875 39.4375 C-52.23776966 47.26187703 -52.23776966 47.26187703 -56.51953125 59.125 C-57.95167266 67.69456161 -60.32131207 75.86262289 -65.14453125 83.1328125 C-66.1486621 84.97379956 -66.1486621 84.97379956 -65.9765625 87.0859375 C-64.5005914 89.97884086 -62.55486025 90.37167053 -59.5625 91.5 C-57.94021484 92.12068359 -57.94021484 92.12068359 -56.28515625 92.75390625 C-54.65900391 93.37072266 -54.65900391 93.37072266 -53 94 C-52.04996094 94.42152344 -51.09992188 94.84304687 -50.12109375 95.27734375 C-49.25613281 95.66019531 -48.39117187 96.04304688 -47.5 96.4375 C-46.33984375 96.96150391 -46.33984375 96.96150391 -45.15625 97.49609375 C-43.01746869 98.16544665 -43.01746869 98.16544665 -40.953125 97.51171875 C-38.14240418 95.33622084 -36.86743833 92.46173525 -35.25 89.375 C-31.11550414 81.91049481 -25.79381776 76.34389895 -19.49707031 70.63232422 C-13.19982513 64.77792542 -11.13250636 59.45373411 -10 51 C-9.91962623 48.24309311 -9.88298303 45.51345721 -9.90234375 42.7578125 C-9.9037587 41.98944061 -9.90517365 41.22106873 -9.90663147 40.42941284 C-9.91219317 37.99456761 -9.9247384 35.55981706 -9.9375 33.125 C-9.94251996 31.46614717 -9.94708199 29.80729288 -9.95117188 28.1484375 C-9.96215002 24.0989223 -9.97938794 20.04947716 -10 16 C-17.84277752 16 -25.7032008 22.85871995 -31 28 Z " fill="#035D9F" transform="translate(205,68)"/>
<path d="M0 0 C0.495 0.99 0.495 0.99 1 2 C1.495 1.835 1.99 1.67 2.5 1.5 C7.05963297 0.58807341 11.55868337 0.51956112 16 2 C16.33 1.34 16.66 0.68 17 0 C17 0.66 17 1.32 17 2 C18.2375 2.185625 19.475 2.37125 20.75 2.5625 C29.15644336 4.48510928 36.77193065 8.69878853 41.9375 15.6875 C49.22182298 27.33529273 51.19210513 37.70523236 51.25 51.1875 C51.270625 52.36892578 51.29125 53.55035156 51.3125 54.76757812 C51.36331436 66.23256868 48.68222588 74.30003051 43.109375 84.23828125 C41.81399935 87.46303682 41.84052536 88.75766819 43 92 C44.37103493 94.26737596 44.37103493 94.26737596 46.0625 96.3125 C46.61035156 97.00988281 47.15820312 97.70726562 47.72265625 98.42578125 C48.14417969 98.94527344 48.56570313 99.46476562 49 100 C47.47077103 103.98499078 45.02050772 105.82276445 41.625 108.3125 C40.66851563 109.03050781 39.71203125 109.74851562 38.7265625 110.48828125 C36 112 36 112 33.80078125 111.98046875 C31.44347014 110.696987 30.78563475 109.3700881 29.5625 107 C27.71366765 103.70051912 27.71366765 103.70051912 24.4375 101.9375 C22.06814141 101.90655314 22.06814141 101.90655314 20.10986328 102.48901367 C10.13797487 104.90409843 -2.11432502 104.05845604 -11 99 C-12.54494141 98.20142578 -12.54494141 98.20142578 -14.12109375 97.38671875 C-25.03724315 91.47653462 -28.80299447 83.31957079 -33 72 C-38.03843812 54.57936253 -35.14833878 35.91529966 -26.9140625 20.0859375 C-22.95414606 13.70158243 -19.09940127 10.00026876 -12.5 6.6875 C-11.84902344 6.34138672 -11.19804688 5.99527344 -10.52734375 5.63867188 C-7.05393738 3.83881585 -3.8882516 2.51594108 0 2 C0 1.34 0 0.68 0 0 Z M-6.75 28.4375 C-13.84716755 37.20928011 -13.99926707 49.2101612 -13 60 C-11.545748 67.56704004 -9.44873402 75.23478504 -3 80 C2.50204197 82.87150365 7.0077157 83.40244952 13 82 C12.04737966 80.51714758 11.08771595 79.03881799 10.125 77.5625 C9.59132813 76.73878906 9.05765625 75.91507813 8.5078125 75.06640625 C7.16165694 72.88961129 7.16165694 72.88961129 5 72 C4.375 69.9375 4.375 69.9375 4 68 C5.09248047 67.60167969 5.09248047 67.60167969 6.20703125 67.1953125 C8.98763443 66.00529212 11.21840966 64.61048964 13.6875 62.875 C17.77990431 60 17.77990431 60 20 60 C20.226875 60.721875 20.45375 61.44375 20.6875 62.1875 C22.24831013 65.53209313 24.3031287 67.51603959 27 70 C30.70670874 58.38564596 31.40764717 44.77319561 26.3125 33.375 C23.29031336 28.2587889 18.46457315 24.27950766 13 22 C5.17722463 20.88659205 -1.13632082 22.78858853 -6.75 28.4375 Z " fill="#055D9E" transform="translate(628,118)"/>
<path d="M0 0 C0.76293869 -0.00832352 1.52587738 -0.01664703 2.31193542 -0.02522278 C4.83642669 -0.04933662 7.36065965 -0.05809649 9.88525391 -0.06469727 C11.64018838 -0.07366258 13.39512205 -0.0827844 15.15005493 -0.09205627 C18.83036151 -0.10855259 22.51057705 -0.11624754 26.19091797 -0.11914062 C30.90452261 -0.12452505 35.61727049 -0.16220424 40.33063316 -0.20788479 C43.95607622 -0.23764262 47.58131265 -0.2448639 51.20686722 -0.24586678 C52.94441273 -0.25007167 54.68195871 -0.26251682 56.419384 -0.28338432 C58.85184273 -0.31027358 61.28231178 -0.30548212 63.71484375 -0.29296875 C64.43086258 -0.30780304 65.14688141 -0.32263733 65.88459778 -0.33792114 C69.77490937 -0.28099605 71.33176399 0.17564125 74.3475647 2.71885681 C75.40649429 3.99968895 75.40649429 3.99968895 76.48681641 5.30639648 C77.47681641 6.29639648 77.47681641 6.29639648 78.48681641 7.30639648 C79.23941037 12.32368954 79.23941037 12.32368954 78.48681641 15.30639648 C76.44003578 17.74478054 74.0928711 19.50028184 71.48681641 21.30639648 C70.99181641 21.80139648 70.99181641 21.80139648 70.48681641 22.30639648 C68.70610394 22.39365871 66.92198501 22.4133869 65.13916016 22.40405273 C64.05957031 22.40083008 62.97998047 22.39760742 61.86767578 22.39428711 C60.73136719 22.3859082 59.59505859 22.3775293 58.42431641 22.36889648 C57.28414063 22.36438477 56.14396484 22.35987305 54.96923828 22.35522461 C52.14171289 22.34339396 49.31429001 22.32691058 46.48681641 22.30639648 C47.14278809 22.33145264 47.79875977 22.35650879 48.47460938 22.38232422 C51.43721824 22.49812909 54.39949672 22.62092534 57.36181641 22.74389648 C58.39435547 22.78321289 59.42689453 22.8225293 60.49072266 22.86303711 C61.96992188 22.92587891 61.96992188 22.92587891 63.47900391 22.98999023 C64.39020996 23.02664795 65.30141602 23.06330566 66.24023438 23.10107422 C68.48681641 23.30639648 68.48681641 23.30639648 70.48681641 24.30639648 C73.26620637 30.01958697 72.66715023 36.11493511 72.48681641 42.30639648 C67.11350751 45.70006526 62.61735152 45.6335199 56.48681641 45.30639648 C56.25994141 46.00764648 56.03306641 46.70889648 55.79931641 47.43139648 C53.08868612 53.3689676 50.37145023 56.2552533 44.36181641 58.68139648 C34.65424286 61.75719185 26.82871801 60.84045329 17.45947266 56.94311523 C13.1380888 54.56379876 10.04687513 51.5235114 7.48681641 47.30639648 C7.48681641 46.64639648 7.48681641 45.98639648 7.48681641 45.30639648 C6.31119141 45.36827148 5.13556641 45.43014648 3.92431641 45.49389648 C-0.61849738 45.48582754 -3.54616209 44.52792853 -7.51318359 42.30639648 C-9.95091649 39.44471004 -9.91835875 36.10223235 -9.84912109 32.41186523 C-9.27484987 28.81265375 -7.51886713 26.3149218 -5.51318359 23.30639648 C-6.29693359 22.72889648 -7.08068359 22.15139648 -7.88818359 21.55639648 C-10.93033822 18.94883537 -12.29991561 17.08781139 -12.77880859 13.08764648 C-12.77365234 12.33483398 -12.76849609 11.58202148 -12.76318359 10.80639648 C-12.76833984 10.05358398 -12.77349609 9.30077148 -12.77880859 8.52514648 C-12.47747382 6.00811485 -11.87087941 4.44250457 -10.51318359 2.30639648 C-6.88366178 -0.11328472 -4.19653824 0.0038737 0 0 Z " fill="#055EA0" transform="translate(123.51318359375,254.693603515625)"/>
<path d="M0 0 C4.05356969 2.01053021 8.03233083 4.13818854 12 6.3125 C13.06734375 6.88000977 13.06734375 6.88000977 14.15625 7.45898438 C19.68341947 10.5061459 23.53377035 13.77719098 25.625 19.9375 C25.85960937 20.62070313 26.09421875 21.30390625 26.3359375 22.0078125 C26.55507813 22.66523438 26.77421875 23.32265625 27 24 C27.4125 25.093125 27.825 26.18625 28.25 27.3125 C29 30 29 30 28 33 C22.19411831 36.09470687 15.45469001 36.60921501 9 37 C8.69707031 36.32453125 8.39414062 35.6490625 8.08203125 34.953125 C4.89973303 27.79732624 4.89973303 27.79732624 -1 23 C-6.01227408 21.69056508 -10.44840519 21.36186181 -15.25 23.5 C-21.7975247 27.37560553 -25.39928 32.57035611 -27.4765625 39.81640625 C-30.15033665 50.97043425 -29.95173331 62.66244146 -24.96875 73.17578125 C-22.03771629 77.80008106 -18.20454114 80.38080942 -13 82 C-8.55418388 82.74662561 -3.93342598 82.37960421 0.19140625 80.46484375 C4.50428921 76.97168801 7.18734218 71.71211505 10 67 C10.71285156 67.20496094 11.42570312 67.40992188 12.16015625 67.62109375 C17.43976749 69.10620647 22.54711116 70.39412346 28 71 C29.48133817 74.4740907 28.59832253 76.94887224 27.31103516 80.38134766 C27.04339355 81.03925293 26.77575195 81.6971582 26.5 82.375 C26.22591309 83.04966309 25.95182617 83.72432617 25.66943359 84.41943359 C23.3985067 89.67808474 20.94228432 92.98260536 16 96 C15.00419922 96.68449219 15.00419922 96.68449219 13.98828125 97.3828125 C3.4699153 104.39505647 -9.18408459 104.69030755 -21.40234375 102.34765625 C-24.11713897 101.44012786 -26.49250723 100.3770657 -29 99 C-29.86882812 98.53722656 -30.73765625 98.07445312 -31.6328125 97.59765625 C-41.89674482 91.33206175 -46.16782105 81.19207125 -49.2890625 69.9609375 C-50.18623635 66.22435631 -50.75196938 62.84447464 -51 59 C-51.0515625 58.21882813 -51.103125 57.43765625 -51.15625 56.6328125 C-51.70272904 41.28585935 -47.29491303 29.19589364 -40 16 C-39.71769531 15.27554688 -39.43539063 14.55109375 -39.14453125 13.8046875 C-37.30705696 10.9073731 -34.659811 9.62221528 -31.75 7.875 C-30.63109375 7.19179687 -29.5121875 6.50859375 -28.359375 5.8046875 C-22.48605514 2.64948544 -17.3592549 1.64436315 -10.8125 1.3125 C-10.10158203 1.26544922 -9.39066406 1.21839844 -8.65820312 1.16992188 C-5.4393007 0.98520593 -3.08769852 0.97076716 0 2 C0 1.34 0 0.68 0 0 Z " fill="#0A5F9F" transform="translate(313,118)"/>
<path d="M0 0 C0.70374756 0.00821777 1.40749512 0.01643555 2.13256836 0.02490234 C10.3348974 0.19984022 17.55482065 0.42348034 23.71484375 6.3359375 C28.50941902 12.31390667 31.29323041 19.22882208 31.47119141 26.86328125 C31.49436432 27.77102295 31.51753723 28.67876465 31.54141235 29.61401367 C31.5612619 30.58701416 31.58111145 31.56001465 31.6015625 32.5625 C31.62471527 33.56837158 31.64786804 34.57424316 31.67172241 35.6105957 C31.71929749 37.73546457 31.76453923 39.86038677 31.80761719 41.98535156 C31.87474905 45.23784182 31.95252739 48.48995955 32.03125 51.7421875 C32.07616503 53.80727776 32.12045683 55.87238168 32.1640625 57.9375 C32.18796051 58.91050049 32.21185852 59.88350098 32.23648071 60.88598633 C32.2533493 61.79372803 32.2702179 62.70146973 32.28759766 63.63671875 C32.30456696 64.43295654 32.32153625 65.22919434 32.33901978 66.04956055 C32.25 68.25 32.25 68.25 31.25 72.25 C24.65 72.25 18.05 72.25 11.25 72.25 C10.59 70.93 9.93 69.61 9.25 68.25 C8.69054687 68.6109375 8.13109375 68.971875 7.5546875 69.34375 C0.19949278 73.60077588 -6.34882929 74.34884516 -14.75 73.25 C-19.14538142 71.87184388 -22.69059527 69.71960425 -25.75 66.25 C-29.48826002 58.35811773 -30.07214892 51.2363754 -27.125 42.9375 C-24.8420265 37.86245785 -22.08216775 34.67843825 -16.84667969 32.43408203 C-10.82101892 30.32663295 -5.03397086 29.54389549 1.3125 29.0625 C2.75399414 28.9397168 2.75399414 28.9397168 4.22460938 28.81445312 C6.56577773 28.61644386 8.90727632 28.42848408 11.25 28.25 C10.82576756 26.78775201 10.38509755 25.33026588 9.9375 23.875 C9.69386719 23.06289062 9.45023437 22.25078125 9.19921875 21.4140625 C8.33631815 18.91815371 8.33631815 18.91815371 5.25 17.25 C3.10209071 16.93399811 3.10209071 16.93399811 0.8125 17 C0.05066406 16.99484375 -0.71117187 16.9896875 -1.49609375 16.984375 C-4.09919412 17.29115286 -5.60152793 17.73557807 -7.75 19.25 C-8.74 21.725 -8.74 21.725 -9.75 24.25 C-15.03 24.25 -20.31 24.25 -25.75 24.25 C-26.89146348 19.68414609 -26.4257324 16.54717517 -24.75 12.25 C-18.55981595 3.30862304 -10.661359 -0.1505013 0 0 Z M-7.75 46.25 C-9.55591584 49.08211373 -9.55591584 49.08211373 -9.75 52.25 C-8.89782671 54.69202118 -8.89782671 54.69202118 -6.75 56.25 C-2.76329127 57.76874618 0.04547599 57.23641122 3.9375 55.8125 C7.44149383 54.13129084 8.92032766 52.76453627 10.3125 49.125 C11.32838377 45.59047951 11.32838377 45.59047951 11.25 43.25 C1.27134665 42.65996002 1.27134665 42.65996002 -7.75 46.25 Z " fill="#0E62A1" transform="translate(421.75,147.75)"/>
<path d="M0 0 C0 4.95 0 9.9 0 15 C-4.29 15 -8.58 15 -13 15 C-13 18.96 -13 22.92 -13 27 C-11.040625 26.979375 -9.08125 26.95875 -7.0625 26.9375 C-5.04167124 26.91622812 -3.01964199 26.92755947 -1 27 C0.82116003 28.82116003 0.1323508 31.30671764 0.13671875 33.7265625 C0.13285156 34.47679687 0.12898438 35.22703125 0.125 36 C0.13080078 37.12535156 0.13080078 37.12535156 0.13671875 38.2734375 C0.12661053 43.87338947 0.12661053 43.87338947 -1 45 C-3.18292774 45.23481693 -5.37203174 45.41363323 -7.5625 45.5625 C-8.76003906 45.64628906 -9.95757812 45.73007813 -11.19140625 45.81640625 C-12.11824219 45.87699219 -13.04507812 45.93757813 -14 46 C-13.99777939 46.64923935 -13.99555878 47.2984787 -13.99327087 47.96739197 C-13.97121998 54.69887748 -13.95609423 61.43035281 -13.94506836 68.16186523 C-13.94002637 70.67716895 -13.93319297 73.19246972 -13.92456055 75.70776367 C-13.91248906 79.31429775 -13.90677051 82.92079323 -13.90234375 86.52734375 C-13.89718246 87.65961899 -13.89202118 88.79189423 -13.88670349 89.95848083 C-13.88659019 91.51998619 -13.88659019 91.51998619 -13.88647461 93.11303711 C-13.884254 94.03459091 -13.88203339 94.95614471 -13.87974548 95.90562439 C-14 98 -14 98 -15 99 C-21.93 99 -28.86 99 -36 99 C-36 81.51 -36 64.02 -36 46 C-38.97 45.67 -41.94 45.34 -45 45 C-45 39.39 -45 33.78 -45 28 C-41.7 28 -38.4 28 -35 28 C-35.04640625 27.2265625 -35.0928125 26.453125 -35.140625 25.65625 C-35.36801425 19.09444601 -35.37209245 13.26270388 -31 8 C-29.67982047 7.30765021 -28.34726858 6.63803573 -27 6 C-26.3162955 4.67532254 -25.65035814 3.34136367 -25 2 C-18.12688207 -4.39910979 -8.22015534 -2.34861581 0 0 Z " fill="#065E9F" transform="translate(502,121)"/>
<path d="M0 0 C3.14588944 -0.02683697 6.29155271 -0.04675902 9.4375 -0.0625 C10.33533203 -0.07087891 11.23316406 -0.07925781 12.15820312 -0.08789062 C13.01220703 -0.09111328 13.86621094 -0.09433594 14.74609375 -0.09765625 C15.93223267 -0.10551147 15.93223267 -0.10551147 17.14233398 -0.11352539 C19 0 19 0 20 1 C20.14393457 5.33530918 20.04212061 9.66157731 20 14 C24.29 14 28.58 14 33 14 C33 19.61 33 25.22 33 31 C29.04 31.33 25.08 31.66 21 32 C21 42.89 21 53.78 21 65 C28.68053811 66.34665014 28.68053811 66.34665014 35 65 C35 70.61 35 76.22 35 82 C26.20381447 85.7697938 19.11392166 87.3888791 10 84 C3.93866938 80.25207723 1.6547177 76.94500538 0 70 C-0.21223107 67.23723376 -0.34648623 64.56304032 -0.37890625 61.80078125 C-0.39590073 61.043311 -0.4128952 60.28584076 -0.43040466 59.50541687 C-0.48309906 57.10786053 -0.52364257 54.71031721 -0.5625 52.3125 C-0.60657014 49.90405502 -0.65333517 47.49573588 -0.70530701 45.08744812 C-0.73702556 43.59504271 -0.76398768 42.10252645 -0.78553772 40.60993958 C-0.85189819 37.27549326 -0.97751337 34.19108546 -2 31 C-4.64 31 -7.28 31 -10 31 C-10 25.39 -10 19.78 -10 14 C-6 13 -6 13 0 14 C0 9.38 0 4.76 0 0 Z " fill="#0D609F" transform="translate(517,135)"/>
<path d="M0 0 C6.93 0 13.86 0 21 0 C22.33074805 3.99224414 22.09218321 7.79496243 22.03759766 11.95361328 C22.02959641 12.8692807 22.02159515 13.78494812 22.01335144 14.72836304 C21.98543945 17.75908867 21.94997795 20.7896719 21.9140625 23.8203125 C21.89230014 25.92112923 21.87085031 28.02194922 21.84970093 30.12277222 C21.80418755 34.52606503 21.75495841 38.92929671 21.703125 43.33251953 C21.63681471 48.98997882 21.5795828 54.64748683 21.52509499 60.30507088 C21.4823547 64.64236616 21.43490473 68.97959993 21.38599777 73.31682968 C21.36302732 75.40372047 21.34152687 77.49062795 21.32149124 79.57754898 C21.29284061 82.4868366 21.25788758 85.39598006 21.22119141 88.30517578 C21.2138649 89.17583679 21.20653839 90.0464978 21.19898987 90.94354248 C21.11427294 96.88572706 21.11427294 96.88572706 20 98 C18.59651265 98.09860131 17.18819523 98.13078937 15.78125 98.1328125 C14.50701172 98.13474609 14.50701172 98.13474609 13.20703125 98.13671875 C12.31371094 98.13285156 11.42039062 98.12898438 10.5 98.125 C9.60667969 98.12886719 8.71335937 98.13273437 7.79296875 98.13671875 C6.94347656 98.13542969 6.09398437 98.13414062 5.21875 98.1328125 C4.43435547 98.13168457 3.64996094 98.13055664 2.84179688 98.12939453 C1 98 1 98 0 97 C-0.09529612 93.98649762 -0.12551904 90.99595894 -0.11352539 87.98217773 C-0.11367142 87.03593536 -0.11381744 86.08969299 -0.1139679 85.11477661 C-0.11326836 81.97102608 -0.10547409 78.82733399 -0.09765625 75.68359375 C-0.09579221 73.51025932 -0.09436824 71.33692448 -0.09336853 69.16358948 C-0.08954221 63.43098805 -0.07971097 57.69841177 -0.06866455 51.96582031 C-0.05845287 46.12109721 -0.05387143 40.27637007 -0.04882812 34.43164062 C-0.0380888 22.95441423 -0.02049108 11.47721314 0 0 Z " fill="#015DA0" transform="translate(562,122)"/>
<path d="M0 0 C0.76293869 -0.00832352 1.52587738 -0.01664703 2.31193542 -0.02522278 C4.83642669 -0.04933662 7.36065965 -0.05809649 9.88525391 -0.06469727 C11.64018838 -0.07366258 13.39512205 -0.0827844 15.15005493 -0.09205627 C18.83036151 -0.10855259 22.51057705 -0.11624754 26.19091797 -0.11914062 C30.90452261 -0.12452505 35.61727049 -0.16220424 40.33063316 -0.20788479 C43.95607622 -0.23764262 47.58131265 -0.2448639 51.20686722 -0.24586678 C52.94441273 -0.25007167 54.68195871 -0.26251682 56.419384 -0.28338432 C58.85184273 -0.31027358 61.28231178 -0.30548212 63.71484375 -0.29296875 C64.43086258 -0.30780304 65.14688141 -0.32263733 65.88459778 -0.33792114 C69.77490937 -0.28099605 71.33176399 0.17564125 74.3475647 2.71885681 C75.40649429 3.99968895 75.40649429 3.99968895 76.48681641 5.30639648 C77.47681641 6.29639648 77.47681641 6.29639648 78.48681641 7.30639648 C79.23941037 12.32368954 79.23941037 12.32368954 78.48681641 15.30639648 C76.44003578 17.74478054 74.0928711 19.50028184 71.48681641 21.30639648 C70.99181641 21.80139648 70.99181641 21.80139648 70.48681641 22.30639648 C68.70610394 22.39365871 66.92198501 22.4133869 65.13916016 22.40405273 C64.05957031 22.40083008 62.97998047 22.39760742 61.86767578 22.39428711 C60.73136719 22.3859082 59.59505859 22.3775293 58.42431641 22.36889648 C57.28414063 22.36438477 56.14396484 22.35987305 54.96923828 22.35522461 C52.14174223 22.34339408 49.31427296 22.32545799 46.48681641 22.30639648 C57.37681641 22.80139648 57.37681641 22.80139648 68.48681641 23.30639648 C68.98181641 24.29639648 68.98181641 24.29639648 69.48681641 25.30639648 C45.06681641 25.30639648 20.64681641 25.30639648 -4.51318359 25.30639648 C-4.84318359 24.31639648 -5.17318359 23.32639648 -5.51318359 22.30639648 C-6.31755859 21.83202148 -7.12193359 21.35764648 -7.95068359 20.86889648 C-10.79733895 19.13313102 -11.32697221 18.33421458 -12.51318359 15.30639648 C-12.77880859 13.08764648 -12.77880859 13.08764648 -12.76318359 10.80639648 C-12.76833984 10.05358398 -12.77349609 9.30077148 -12.77880859 8.52514648 C-12.47747382 6.00811485 -11.87087941 4.44250457 -10.51318359 2.30639648 C-6.88366178 -0.11328472 -4.19653824 0.0038737 0 0 Z " fill="#0E5F9D" transform="translate(123.51318359375,254.693603515625)"/>
<path d="M0 0 C0.83724609 -0.020625 1.67449219 -0.04125 2.53710938 -0.0625 C3.33826172 -0.06765625 4.13941406 -0.0728125 4.96484375 -0.078125 C6.07073853 -0.09214355 6.07073853 -0.09214355 7.19897461 -0.10644531 C7.81393799 0.01118164 8.42890137 0.12880859 9.0625 0.25 C9.7225 1.24 10.3825 2.23 11.0625 3.25 C11.97 2.755 12.8775 2.26 13.8125 1.75 C18.95069515 -0.47619954 24.56573774 -0.39226205 30.0625 0.25 C32.0625 2.25 32.0625 2.25 32.30541992 4.20532227 C32.30131104 4.98447998 32.29720215 5.7636377 32.29296875 6.56640625 C32.29103516 7.41267578 32.28910156 8.25894531 32.28710938 9.13085938 C32.26874023 10.45827148 32.26874023 10.45827148 32.25 11.8125 C32.24935547 12.70130859 32.24871094 13.59011719 32.24804688 14.50585938 C32.20271097 21.10978903 32.20271097 21.10978903 31.0625 22.25 C29.52028169 22.24409112 27.97814846 22.19481791 26.4375 22.125 C21.42737206 22.09632974 18.35621582 22.6211944 14.0625 25.25 C10.74878115 30.30724327 10.60852972 34.71083311 10.5859375 40.55078125 C10.56256821 41.86625191 10.56256821 41.86625191 10.53872681 43.20829773 C10.49141 45.99302365 10.46349429 48.77750046 10.4375 51.5625 C10.4010299 54.36517901 10.36049242 57.16771604 10.31484985 59.97026062 C10.28757894 61.7107459 10.26624696 63.45133598 10.25131226 65.19197083 C10.17320473 71.13929527 10.17320473 71.13929527 9.0625 72.25 C7.64679877 72.33651611 6.226905 72.35704904 4.80859375 72.34765625 C3.95458984 72.34443359 3.10058594 72.34121094 2.22070312 72.33789062 C1.32287109 72.32951172 0.42503906 72.32113281 -0.5 72.3125 C-1.40169922 72.30798828 -2.30339844 72.30347656 -3.23242188 72.29882812 C-5.46751314 72.28700225 -7.70247437 72.2705222 -9.9375 72.25 C-9.96062524 63.01002448 -9.97841601 53.77005886 -9.98931217 44.53006077 C-9.99454061 40.24000085 -10.00163753 35.94996067 -10.01293945 31.65991211 C-10.02376975 27.523206 -10.02977714 23.38651892 -10.03237724 19.24979973 C-10.03423124 17.66807696 -10.03785136 16.08635529 -10.04323006 14.50464058 C-10.0504424 12.29677162 -10.05149086 10.08898227 -10.05102539 7.88110352 C-10.053246 6.62201675 -10.05546661 5.36292999 -10.05775452 4.06568909 C-9.80727869 -1.79905571 -4.67519749 0.02866021 0 0 Z " fill="#095E9E" transform="translate(359.9375,147.75)"/>
<path d="M0 0 C0.66 1.32 1.32 2.64 2 4 C2.99 4 3.98 4 5 4 C4.484375 4.495 3.96875 4.99 3.4375 5.5 C1.62996016 8.64354754 2.20348542 10.56647983 2.796875 14.04296875 C3.08409717 16.81024387 2.28175846 18.57140503 1 21 C0.62875 21.763125 0.2575 22.52625 -0.125 23.3125 C-0.41375 23.869375 -0.7025 24.42625 -1 25 C-1 23.02 -1 21.04 -1 19 C-11.6818963 19.26939326 -11.6818963 19.26939326 -21 24 C-22.31241113 26.46915186 -22.31241113 26.46915186 -22 29 C-20.32541158 32.21350175 -20.32541158 32.21350175 -17.375 32.75 C-13.38352465 33.04566484 -9.95133087 32.61313755 -6 32 C-6.99 33.65 -7.98 35.3 -9 37 C-8.01 37.33 -7.02 37.66 -6 38 C-6.33 39.32 -6.66 40.64 -7 42 C-6.34 42 -5.68 42 -5 42 C-5 43.32 -5 44.64 -5 46 C-12.40061202 50.38554786 -19.52064109 51.00754735 -28 50 C-32.34668696 48.64578902 -36.04975315 46.52390596 -39 43 C-38.69208308 41.328451 -38.35613097 39.66194453 -38 38 C-38.64438717 36.32459336 -39.31246699 34.65816784 -40 33 C-40.25 29.8125 -40.25 29.8125 -40 27 C-39.34 26.34 -38.68 25.68 -38 25 C-37.938125 24.071875 -37.87625 23.14375 -37.8125 22.1875 C-36.90000863 18.60772617 -36.47838391 18.32093079 -33.5625 16.375 C-32.94503906 16.01148438 -32.32757813 15.64796875 -31.69140625 15.2734375 C-29.6734357 13.75413403 -28.9674371 12.30434767 -28 10 C-27.11957031 10.01160156 -26.23914063 10.02320313 -25.33203125 10.03515625 C-24.17058594 10.04417969 -23.00914062 10.05320313 -21.8125 10.0625 C-20.66394531 10.07410156 -19.51539063 10.08570313 -18.33203125 10.09765625 C-15.38000433 10.01113729 -12.86113664 9.67763763 -10 9 C-9.18917969 8.82339844 -8.37835938 8.64679688 -7.54296875 8.46484375 C-6.76566406 8.29082031 -5.98835938 8.11679688 -5.1875 7.9375 C-4.39730469 7.76089844 -3.60710937 7.58429688 -2.79296875 7.40234375 C-2.20128906 7.26957031 -1.60960937 7.13679687 -1 7 C-0.67 4.69 -0.34 2.38 0 0 Z " fill="#085E9E" transform="translate(435,171)"/>
<path d="M0 0 C6.93 0 13.86 0 21 0 C22.33074805 3.99224414 22.09218321 7.79496243 22.03759766 11.95361328 C22.02959641 12.8692807 22.02159515 13.78494812 22.01335144 14.72836304 C21.98543945 17.75908867 21.94997795 20.7896719 21.9140625 23.8203125 C21.89230014 25.92112923 21.87085031 28.02194922 21.84970093 30.12277222 C21.80418755 34.52606503 21.75495841 38.92929671 21.703125 43.33251953 C21.63681471 48.98997882 21.5795828 54.64748683 21.52509499 60.30507088 C21.4823547 64.64236616 21.43490473 68.97959993 21.38599777 73.31682968 C21.36302732 75.40372047 21.34152687 77.49062795 21.32149124 79.57754898 C21.29284061 82.4868366 21.25788758 85.39598006 21.22119141 88.30517578 C21.2138649 89.17583679 21.20653839 90.0464978 21.19898987 90.94354248 C21.11427294 96.88572706 21.11427294 96.88572706 20 98 C18.59651265 98.09860131 17.18819523 98.13078937 15.78125 98.1328125 C14.50701172 98.13474609 14.50701172 98.13474609 13.20703125 98.13671875 C12.31371094 98.13285156 11.42039062 98.12898438 10.5 98.125 C9.60667969 98.12886719 8.71335937 98.13273437 7.79296875 98.13671875 C6.94347656 98.13542969 6.09398437 98.13414062 5.21875 98.1328125 C4.43435547 98.13168457 3.64996094 98.13055664 2.84179688 98.12939453 C1 98 1 98 0 97 C-0.09529612 93.98649762 -0.12551904 90.99595894 -0.11352539 87.98217773 C-0.11367142 87.03593536 -0.11381744 86.08969299 -0.1139679 85.11477661 C-0.11326836 81.97102608 -0.10547409 78.82733399 -0.09765625 75.68359375 C-0.09579221 73.51025932 -0.09436824 71.33692448 -0.09336853 69.16358948 C-0.08954221 63.43098805 -0.07971097 57.69841177 -0.06866455 51.96582031 C-0.05845287 46.12109721 -0.05387143 40.27637007 -0.04882812 34.43164062 C-0.0380888 22.95441423 -0.02049108 11.47721314 0 0 Z M3 2 C3 32.69 3 63.38 3 95 C8.28 95 13.56 95 19 95 C19.04631499 83.46494117 19.08186498 71.92990441 19.10362434 60.39477158 C19.11406707 55.03870106 19.12823528 49.68269409 19.15087891 44.32666016 C19.17258972 39.15900293 19.18456494 33.99140689 19.18975449 28.82370758 C19.1934534 26.85091437 19.20067633 24.87812456 19.21146011 22.90535736 C19.22595155 20.14483876 19.22797892 17.38457388 19.22705078 14.62402344 C19.23424133 13.80618881 19.24143188 12.98835419 19.24884033 12.14573669 C19.2335901 7.9613902 18.91872196 5.83744393 17 2 C12.38 2 7.76 2 3 2 Z " fill="#3A7099" transform="translate(562,122)"/>
<path d="M0 0 C4.95 0 9.9 0 15 0 C15.02684679 2.64590014 15.04676357 5.29153096 15.0625 7.9375 C15.07087891 8.69224609 15.07925781 9.44699219 15.08789062 10.22460938 C15.09652441 12.14994313 15.05224333 14.07535581 15 16 C13.12175109 17.87824891 9.96064724 17.39102397 7.4375 17.5625 C5.64119141 17.68818359 5.64119141 17.68818359 3.80859375 17.81640625 C2.88175781 17.87699219 1.95492188 17.93757813 1 18 C1.00222061 18.64923935 1.00444122 19.2984787 1.00672913 19.96739197 C1.02878002 26.69887748 1.04390577 33.43035281 1.05493164 40.16186523 C1.05997363 42.67716895 1.06680703 45.19246972 1.07543945 47.70776367 C1.08751094 51.31429775 1.09322949 54.92079323 1.09765625 58.52734375 C1.10281754 59.65961899 1.10797882 60.79189423 1.11329651 61.95848083 C1.11340981 63.51998619 1.11340981 63.51998619 1.11352539 65.11303711 C1.115746 66.03459091 1.11796661 66.95614471 1.12025452 67.90562439 C1 70 1 70 0 71 C-6.93 71 -13.86 71 -21 71 C-21 53.51 -21 36.02 -21 18 C-21.66 17.67 -22.32 17.34 -23 17 C-22.67 16.34 -22.34 15.68 -22 15 C-21.34 15 -20.68 15 -20 15 C-20 33.15 -20 51.3 -20 70 C-14.06 70 -8.12 70 -2 70 C-2.00523682 68.33912354 -2.01047363 66.67824707 -2.01586914 64.96704102 C-2.03391058 58.83016494 -2.04542886 52.69329123 -2.05493164 46.55639648 C-2.05997383 43.89558519 -2.06680736 41.23477668 -2.07543945 38.57397461 C-2.08751009 34.75894484 -2.09322929 30.94395156 -2.09765625 27.12890625 C-2.10281754 25.93100967 -2.10797882 24.7331131 -2.11329651 23.49891663 C-2.11340981 21.84731789 -2.11340981 21.84731789 -2.11352539 20.16235352 C-2.115746 19.18750504 -2.11796661 18.21265656 -2.12025452 17.20826721 C-2 15 -2 15 -1 14 C1.35313555 13.92728259 3.70833668 13.91629132 6.0625 13.9375 C7.35285156 13.94652344 8.64320313 13.95554688 9.97265625 13.96484375 C10.97167969 13.97644531 11.97070312 13.98804688 13 14 C13 9.71 13 5.42 13 1 C8.71 1 4.42 1 0 1 C0 0.67 0 0.34 0 0 Z " fill="#557FB1" transform="translate(487,149)"/>
<path d="M0 0 C0.99 0.33 1.98 0.66 3 1 C1.98683326 12.14483412 -0.80223602 18.78045893 -9 26.5625 C-9.72445312 27.28501953 -10.44890625 28.00753906 -11.1953125 28.75195312 C-16.57741544 34 -16.57741544 34 -20 34 C-18.77048675 23.09615884 -16.55128374 17.33147215 -8.671875 9.73828125 C-7.12325191 8.12814743 -5.94069576 6.56971522 -4.75 4.6875 C-3 2 -3 2 0 0 Z " fill="#0E5E9C" transform="translate(179,109)"/>
<path d="M0 0 C0.99842171 0.97311127 0.99842171 0.97311127 2.01701355 1.96588135 C5.66064969 4.45050149 8.47131883 4.57599702 12.7277832 4.54589844 C13.48929184 4.55623611 14.25080048 4.56657379 15.03538513 4.57722473 C17.54073403 4.60661276 20.04527366 4.608151 22.55078125 4.609375 C24.29242998 4.62435941 26.03406452 4.64108712 27.77568054 4.65948486 C32.35084695 4.70314151 36.92582168 4.72315368 41.50115967 4.73822021 C46.17341437 4.75779741 50.84546225 4.79976673 55.51757812 4.83984375 C64.6783216 4.91512754 73.83901874 4.96543008 83 5 C82.67 5.66 82.34 6.32 82 7 C74.08 7 66.16 7 58 7 C68.89 7.495 68.89 7.495 80 8 C80.495 8.99 80.495 8.99 81 10 C56.58 10 32.16 10 7 10 C6.67 9.01 6.34 8.02 6 7 C5.175 6.525625 4.35 6.05125 3.5 5.5625 C1 4 1 4 0.1875 1.8125 C0.125625 1.214375 0.06375 0.61625 0 0 Z " fill="#75ABB9" transform="translate(112,270)"/>
<path d="M0 0 C1.65 0.33 3.3 0.66 5 1 C4.01 2.65 3.02 4.3 2 6 C2.99 6.66 3.98 7.32 5 8 C5 8.66 5 9.32 5 10 C5.99 10.33 6.98 10.66 8 11 C7.01 11.33 6.02 11.66 5 12 C5 14.64 5 17.28 5 20 C-0.28 20 -5.56 20 -11 20 C-12.29262632 14.8294947 -11.57499511 10.71471885 -8.92578125 6.1484375 C-7.6875 4.5 -7.6875 4.5 -5 2 C-2.1875 1.625 -2.1875 1.625 0 2 C0 1.34 0 0.68 0 0 Z " fill="#015D9F" transform="translate(407,152)"/>
<path d="M0 0 C21.78 0 43.56 0 66 0 C65.34 0.33 64.68 0.66 64 1 C64 1.66 64 2.32 64 3 C43.21 3 22.42 3 1 3 C0.67 2.01 0.34 1.02 0 0 Z " fill="#A2BECF" transform="translate(126,246)"/>
<path d="M0 0 C0.33 0 0.66 0 1 0 C0.85892253 1.45880109 0.71197585 2.91703551 0.5625 4.375 C0.48128906 5.18710938 0.40007812 5.99921875 0.31640625 6.8359375 C0 9 0 9 -1 11 C-1.99 11 -2.98 11 -4 11 C-4 11.66 -4 12.32 -4 13 C-4.66 13 -5.32 13 -6 13 C-6.33 14.65 -6.66 16.3 -7 18 C-8.32 18 -9.64 18 -11 18 C-11 18.66 -11 19.32 -11 20 C-9.02 20.66 -7.04 21.32 -5 22 C-4.1880548 29.44283101 -6.47682083 33.18448392 -11 39 C-12.485 38.505 -12.485 38.505 -14 38 C-13.566875 37.32453125 -13.13375 36.6490625 -12.6875 35.953125 C-12.130625 35.06109375 -11.57375 34.1690625 -11 33.25 C-10.443125 32.36828125 -9.88625 31.4865625 -9.3125 30.578125 C-7.69754464 27.88805607 -7.69754464 27.88805607 -8 24 C-14.93 21.69 -21.86 19.38 -29 17 C-27.68 16.34 -26.36 15.68 -25 15 C-24.34 15.33 -23.68 15.66 -23 16 C-23 16.66 -23 17.32 -23 18 C-21.68 18 -20.36 18 -19 18 C-19 17.01 -19 16.02 -19 15 C-21.475 14.01 -21.475 14.01 -24 13 C-23.67 12.34 -23.34 11.68 -23 11 C-22.40832031 11.20496094 -21.81664062 11.40992188 -21.20703125 11.62109375 C-20.41683594 11.89050781 -19.62664062 12.15992188 -18.8125 12.4375 C-18.03519531 12.70433594 -17.25789062 12.97117188 -16.45703125 13.24609375 C-13.98690144 14.00401911 -11.54007136 14.53529778 -9 15 C-7.87256334 13.25156882 -6.7481458 11.5011906 -5.625 9.75 C-4.99851563 8.77546875 -4.37203125 7.8009375 -3.7265625 6.796875 C-2.34865148 4.56478385 -1.11687358 2.36912578 0 0 Z " fill="#105A96" transform="translate(173,150)"/>
<path d="M0 0 C0.33 0 0.66 0 1 0 C1.66 22.44 2.32 44.88 3 68 C7.95 68 12.9 68 18 68 C18.33 55.79 18.66 43.58 19 31 C19.33 31 19.66 31 20 31 C20.02464775 36.53588533 20.04283496 42.071739 20.05493164 47.60766602 C20.05997244 49.4924373 20.06680498 51.37720465 20.07543945 53.26196289 C20.08751617 55.96501636 20.09323068 58.66801831 20.09765625 61.37109375 C20.10281754 62.21900986 20.10797882 63.06692596 20.11329651 63.9405365 C20.11349195 65.96071068 20.06206211 67.98077934 20 70 C19.67 70.33 19.34 70.66 19 71 C12.73 71 6.46 71 0 71 C0 47.57 0 24.14 0 0 Z " fill="#6491B6" transform="translate(350,149)"/>
<path d="M0 0 C0 1.98 0 3.96 0 6 C-0.99 5.01 -0.99 5.01 -2 4 C-5.1996074 3.70574251 -5.1996074 3.70574251 -9.02001953 3.77294922 C-9.74207581 3.77265717 -10.46413208 3.77236511 -11.20806885 3.77206421 C-13.59977142 3.77345992 -15.99116421 3.78903217 -18.3828125 3.8046875 C-20.0390506 3.80841678 -21.69529089 3.81126415 -23.35153198 3.81326294 C-27.7147224 3.82090611 -32.07778007 3.8405604 -36.44091797 3.8626709 C-40.89158329 3.88311465 -45.34227003 3.8922615 -49.79296875 3.90234375 C-58.52870681 3.92380571 -67.2643369 3.95794982 -76 4 C-75.67 3.01 -75.34 2.02 -75 1 C-65.3688699 0.8695371 -55.73773882 0.73914626 -46.10660648 0.60884857 C-41.63495397 0.54835018 -37.1633018 0.48782654 -32.69165039 0.42724609 C-28.37988297 0.36883262 -24.06811467 0.31048429 -19.75634575 0.25218201 C-18.10763963 0.22987714 -16.45893383 0.20754841 -14.81022835 0.18519592 C-12.50898445 0.15400058 -10.20773944 0.12288849 -7.90649414 0.09179688 C-6.5941127 0.07403198 -5.28173126 0.05626709 -3.92958069 0.03796387 C-1 0 -1 0 0 0 Z " fill="#074A88" transform="translate(194,279)"/>
<path d="M0 0 C0.33 0.66 0.66 1.32 1 2 C1.495 1.835 1.99 1.67 2.5 1.5 C7.05963297 0.58807341 11.55868337 0.51956112 16 2 C16.33 1.34 16.66 0.68 17 0 C17 0.66 17 1.32 17 2 C17.62648438 2.12117188 18.25296875 2.24234375 18.8984375 2.3671875 C19.71570313 2.53476563 20.53296875 2.70234375 21.375 2.875 C22.18710937 3.03742188 22.99921875 3.19984375 23.8359375 3.3671875 C26 4 26 4 28 6 C25.68715544 5.85973717 23.37472409 5.71264442 21.0625 5.5625 C19.13083984 5.44068359 19.13083984 5.44068359 17.16015625 5.31640625 C14 5 14 5 13 4 C10.13311752 4.09096556 7.29699485 4.23767988 4.4375 4.4375 C3.63119141 4.48970703 2.82488281 4.54191406 1.99414062 4.59570312 C-0.00421738 4.72577376 -2.00215386 4.86229056 -4 5 C-4.66 6.32 -5.32 7.64 -6 9 C-6 8.34 -6 7.68 -6 7 C-7.98 7.66 -9.96 8.32 -12 9 C-12 9.66 -12 10.32 -12 11 C-13.60875 11.4021875 -13.60875 11.4021875 -15.25 11.8125 C-18.56508928 12.86227827 -20.43877646 13.74612328 -23 16 C-21.65900249 12.81140593 -20.49681822 11.35557253 -17.48046875 9.67578125 C-16.44116211 9.09280273 -16.44116211 9.09280273 -15.38085938 8.49804688 C-14.65705078 8.10681641 -13.93324219 7.71558594 -13.1875 7.3125 C-12.47529297 6.90966797 -11.76308594 6.50683594 -11.02929688 6.09179688 C-7.38285377 4.07798879 -4.20312453 2.48719911 0 2 C0 1.34 0 0.68 0 0 Z " fill="#3C6F9B" transform="translate(628,118)"/>
<path d="M0 0 C0 0.66 0 1.32 0 2 C-1.65 2 -3.3 2 -5 2 C-5.20625 2.7425 -5.4125 3.485 -5.625 4.25 C-7.38944483 7.77888966 -9.74497213 8.87715573 -13 11 C-13 11.99 -13 12.98 -13 14 C-13.66 14 -14.32 14 -15 14 C-14.67 15.32 -14.34 16.64 -14 18 C-14.66 18.33 -15.32 18.66 -16 19 C-15.9278125 19.68707031 -15.855625 20.37414062 -15.78125 21.08203125 C-15.6884375 21.98308594 -15.595625 22.88414062 -15.5 23.8125 C-15.4071875 24.70582031 -15.314375 25.59914062 -15.21875 26.51953125 C-15 29 -15 29 -15 32 C-15.99 31.67 -16.98 31.34 -18 31 C-20.69056617 23.8566255 -19.2793845 15.95895396 -16.265625 9.19921875 C-13.71238353 4.76256768 -10.56331415 2.64371759 -5.8125 0.6875 C-3 0 -3 0 0 0 Z " fill="#3670A3" transform="translate(412,179)"/>
<path d="M0 0 C6.27 0 12.54 0 19 0 C19 0.33 19 0.66 19 1 C13.06 1 7.12 1 1 1 C1.020625 3.289375 1.04125 5.57875 1.0625 7.9375 C1.08370868 10.29166332 1.07271741 12.64686445 1 15 C0 16 0 16 -1.84765625 16.09765625 C-3.8984375 16.06510417 -5.94921875 16.03255208 -8 16 C-8 19.96 -8 23.92 -8 28 C-5.69 28 -3.38 28 -1 28 C0 31 0 31 -0.9375 33.1875 C-1.288125 33.785625 -1.63875 34.38375 -2 35 C-2 33.68 -2 32.36 -2 31 C-4.64 31 -7.28 31 -10 31 C-10 25.39 -10 19.78 -10 14 C-6 13 -6 13 0 14 C0 9.38 0 4.76 0 0 Z " fill="#527CA1" transform="translate(517,135)"/>
<path d="M0 0 C0.99 0.33 1.98 0.66 3 1 C0.2052092 8.69459425 -2.74419252 15.99150002 -7 23 C-11.39458137 21.51534413 -13.05088905 18.18679232 -15.25 14.375 C-15.61351563 13.76398438 -15.97703125 13.15296875 -16.3515625 12.5234375 C-17.24359752 11.02106273 -18.12305829 9.51123449 -19 8 C-18.01 7.34 -17.02 6.68 -16 6 C-15.34 7.65 -14.68 9.3 -14 11 C-13.34 11 -12.68 11 -12 11 C-11.34 12.65 -10.68 14.3 -10 16 C-6.94729537 16.15811388 -6.94729537 16.15811388 -4 15 C-4 13.68 -4 12.36 -4 11 C-3.34 11 -2.68 11 -2 11 C-1.7834375 9.1128125 -1.7834375 9.1128125 -1.5625 7.1875 C-1.26251314 4.57332877 -0.84186703 2.52560108 0 0 Z " fill="#4476A3" transform="translate(113,189)"/>
<path d="M0 0 C1.1792419 4.17131423 1.0448093 8.15146183 0.9140625 12.44921875 C0.89282318 13.26244095 0.87158386 14.07566315 0.84970093 14.91352844 C0.80354153 16.62740433 0.75462201 18.34120782 0.703125 20.05493164 C0.62498036 22.68816192 0.55798365 25.3215135 0.4921875 27.95507812 C0.44597746 29.61981026 0.39912489 31.28452471 0.3515625 32.94921875 C0.33171295 33.74083908 0.3118634 34.53245941 0.29141235 35.34806824 C0.11511753 40.88488247 0.11511753 40.88488247 -1 42 C-3.53049402 42.07313567 -6.03304837 42.09247527 -8.5625 42.0625 C-9.62887695 42.05573242 -9.62887695 42.05573242 -10.71679688 42.04882812 C-12.47790013 42.03700864 -14.23896036 42.01907263 -16 42 C-16 41.67 -16 41.34 -16 41 C-9.565 40.505 -9.565 40.505 -3 40 C-2.98018066 39.07251953 -2.96036133 38.14503906 -2.93994141 37.18945312 C-2.86137684 33.71524973 -2.77467001 30.24144044 -2.68261719 26.76757812 C-2.64457165 25.27026052 -2.60967833 23.77285911 -2.578125 22.27539062 C-2.53193799 20.11037433 -2.47403983 17.94592314 -2.4140625 15.78125 C-2.3826416 14.48251953 -2.3512207 13.18378906 -2.31884766 11.84570312 C-1.97229683 7.66586494 -1.11830494 4.03374552 0 0 Z " fill="#014F91" transform="translate(369,176)"/>
<path d="M0 0 C0.66 0.33 1.32 0.66 2 1 C2 1.66 2 2.32 2 3 C3.19496094 3.05607422 3.19496094 3.05607422 4.4140625 3.11328125 C10.31776574 3.47956941 14.96943503 3.78602794 20 7 C20.8119452 14.44283101 18.52317917 18.18448392 14 24 C13.01 23.67 12.02 23.34 11 23 C11.433125 22.32453125 11.86625 21.6490625 12.3125 20.953125 C12.869375 20.06109375 13.42625 19.1690625 14 18.25 C14.556875 17.36828125 15.11375 16.4865625 15.6875 15.578125 C17.30245536 12.88805607 17.30245536 12.88805607 17 9 C10.07 6.69 3.14 4.38 -4 2 C-2.68 1.34 -1.36 0.68 0 0 Z " fill="#215F94" transform="translate(148,165)"/>
<path d="M0 0 C0.33 0 0.66 0 1 0 C1.33 16.83 1.66 33.66 2 51 C7.28 51.33 12.56 51.66 18 52 C18 52.66 18 53.32 18 54 C12.06 54 6.12 54 0 54 C0 36.18 0 18.36 0 0 Z " fill="#064A84" transform="translate(467,165)"/>
<path d="M0 0 C3.47909371 -0.05883728 6.95805674 -0.09387399 10.4375 -0.125 C11.41138672 -0.14175781 12.38527344 -0.15851562 13.38867188 -0.17578125 C19.58848075 -0.21725154 25.00004295 0.42400301 31 2 C31 2.33 31 2.66 31 3 C19.12 3 7.24 3 -5 3 C-5 2.67 -5 2.34 -5 2 C-3.35 2 -1.7 2 0 2 C0 1.34 0 0.68 0 0 Z " fill="#3B70A1" transform="translate(143,52)"/>
<path d="M0 0 C1.84765625 1.10546875 1.84765625 1.10546875 3.84765625 3.10546875 C4.50765625 3.43546875 5.16765625 3.76546875 5.84765625 4.10546875 C5.84765625 7.73546875 5.84765625 11.36546875 5.84765625 15.10546875 C4.85765625 14.77546875 3.86765625 14.44546875 2.84765625 14.10546875 C3.50765625 14.10546875 4.16765625 14.10546875 4.84765625 14.10546875 C4.42342381 12.64322076 3.9827538 11.18573463 3.53515625 9.73046875 C3.29152344 8.91835937 3.04789062 8.10625 2.796875 7.26953125 C1.9339744 4.77362246 1.9339744 4.77362246 -1.15234375 3.10546875 C-3.30025304 2.78946686 -3.30025304 2.78946686 -5.58984375 2.85546875 C-6.35167969 2.8503125 -7.11351562 2.84515625 -7.8984375 2.83984375 C-11.51508857 3.26606953 -13.59964493 4.55276993 -16.15234375 7.10546875 C-16.46484375 4.79296875 -16.46484375 4.79296875 -16.15234375 2.10546875 C-11.88921449 -1.88261991 -5.28139395 -2.1949895 0 0 Z " fill="#3A70A1" transform="translate(428.15234375,161.89453125)"/>
<path d="M0 0 C0.99 0.33 1.98 0.66 3 1 C3 2.65 3 4.3 3 6 C1.25307205 6.67467562 -0.49768525 7.33944156 -2.25 8 C-3.71179688 8.556875 -3.71179688 8.556875 -5.203125 9.125 C-8 10 -8 10 -12 10 C-11.18437076 12.18153844 -11.18437076 12.18153844 -9 12.8125 C-7 14 -7 14 -6.25 16.625 C-6.1675 17.40875 -6.085 18.1925 -6 19 C-7.17825358 18.09827532 -8.34231577 17.17798498 -9.5 16.25 C-10.1496875 15.73953125 -10.799375 15.2290625 -11.46875 14.703125 C-13 13 -13 13 -13 9 C-10.41015625 6.89453125 -10.41015625 6.89453125 -7.0625 4.8125 C-5.96035156 4.11769531 -4.85820313 3.42289063 -3.72265625 2.70703125 C-2.37494141 1.86205078 -2.37494141 1.86205078 -1 1 C-0.67 0.67 -0.34 0.34 0 0 Z " fill="#2E6B9E" transform="translate(645,177)"/>
<path d="M0 0 C0.33 0 0.66 0 1 0 C1.08096803 1.45742463 1.13917774 2.91612807 1.1875 4.375 C1.23970703 5.59316406 1.23970703 5.59316406 1.29296875 6.8359375 C1.19628906 7.55007812 1.09960938 8.26421875 1 9 C-1.82542329 10.88361553 -2.81059318 11.31902686 -6 11.6875 C-6.680625 11.77386719 -7.36125 11.86023438 -8.0625 11.94921875 C-10 12 -10 12 -13 11 C-13.33 11.99 -13.66 12.98 -14 14 C-14 13.34 -14 12.68 -14 12 C-16.64 12 -19.28 12 -22 12 C-22 11.01 -22 10.02 -22 9 C-16.96145894 8.16788724 -12.1874338 7.8921466 -7.0625 7.9375 C-6.03672852 7.94426758 -6.03672852 7.94426758 -4.99023438 7.95117188 C-3.32678396 7.9628044 -1.6633795 7.98073306 0 8 C0 5.36 0 2.72 0 0 Z " fill="#2E679C" transform="translate(434,169)"/>
<path d="M0 0 C1.19625 0.185625 2.3925 0.37125 3.625 0.5625 C7.58847242 1.17752158 9.68623049 0.71896158 14 0 C14 5.61 14 11.22 14 17 C12.68 16.67 11.36 16.34 10 16 C10.33 12.37 10.66 8.74 11 5 C8.72135417 4.8046875 6.44270833 4.609375 4.1640625 4.4140625 C2 4 2 4 0 2 C0 1.34 0 0.68 0 0 Z " fill="#4073A0" transform="translate(538,200)"/>
<path d="M0 0 C0.33 0 0.66 0 1 0 C2.38578207 6.0353725 2.22352764 12.02274907 2.25 18.1875 C2.270625 19.36892578 2.29125 20.55035156 2.3125 21.76757812 C2.35341643 30.99934802 1.63365562 38.48845917 -4 46 C-4 42.7 -4 39.4 -4 36 C-2.515 35.505 -2.515 35.505 -1 35 C-1 32.03 -1 29.06 -1 26 C-0.67 26 -0.34 26 0 26 C0 17.42 0 8.84 0 0 Z " fill="#4B7AA4" transform="translate(677,151)"/>
<path d="M0 0 C-0.75 4.75 -0.75 4.75 -3 7 C-3.79792969 7.23460937 -4.59585938 7.46921875 -5.41796875 7.7109375 C-9.1084571 9.55339008 -9.73502307 11.88307798 -11.3125 15.625 C-11.82425781 16.81351563 -12.33601562 18.00203125 -12.86328125 19.2265625 C-13.23839844 20.14179688 -13.61351562 21.05703125 -14 22 C-14.66 21.67 -15.32 21.34 -16 21 C-9.71428571 0 -9.71428571 0 0 0 Z " fill="#095194" transform="translate(613,129)"/>
<path d="M0 0 C2.39375623 0.36208077 3.65788536 0.60297808 5.265625 2.46875 C9.07981262 10.33929588 8.35249619 18.47155047 8 27 C7.34 27 6.68 27 6 27 C5.85304688 25.40671875 5.85304688 25.40671875 5.703125 23.78125 C4.90638661 15.99695033 4.02837779 9.84824223 0 3 C0 2.01 0 1.02 0 0 Z " fill="#4074A2" transform="translate(651,145)"/>
<path d="M0 0 C0.99 0.33 1.98 0.66 3 1 C2.34 3.64 1.68 6.28 1 9 C1.99 9 2.98 9 4 9 C3.45925627 12.78520613 1.92427254 14.59177555 -1 17 C-1.99 17 -2.98 17 -4 17 C-3.7168444 14.91549283 -3.42314331 12.83241633 -3.125 10.75 C-2.96257812 9.58984375 -2.80015625 8.4296875 -2.6328125 7.234375 C-2.08179569 4.41806687 -1.44203518 2.44782443 0 0 Z " fill="#3D719F" transform="translate(163,126)"/>
<path d="M0 0 C0.33 0 0.66 0 1 0 C1.15855469 0.78503906 1.31710937 1.57007813 1.48046875 2.37890625 C3.08466288 9.60221131 4.51770438 15.8643168 10.8203125 20.2734375 C15.46379216 22.84100861 19.74188974 23.6244207 25 24 C25 24.33 25 24.66 25 25 C14.95027624 25.19705341 14.95027624 25.19705341 11 24 C10.34 23.34 9.68 22.68 9 22 C8.34 21.67 7.68 21.34 7 21 C5.875 18.9375 5.875 18.9375 5 17 C4.34 17.33 3.68 17.66 3 18 C2.731875 17.2575 2.46375 16.515 2.1875 15.75 C1.18949439 12.9743345 1.18949439 12.9743345 -0.75 11.25 C-2.61086411 7.90044459 -1.49676075 5.41207068 -0.54296875 1.828125 C-0.36378906 1.22484375 -0.18460937 0.6215625 0 0 Z " fill="#276297" transform="translate(283,177)"/>
<path d="M0 0 C7.92 0 15.84 0 24 0 C23.01 1.485 23.01 1.485 22 3 C19.84521484 3.34057617 19.84521484 3.34057617 17.2109375 3.29296875 C16.26992187 3.28330078 15.32890625 3.27363281 14.359375 3.26367188 C13.37453125 3.23853516 12.3896875 3.21339844 11.375 3.1875 C9.88613281 3.16719727 9.88613281 3.16719727 8.3671875 3.14648438 C5.91091928 3.11105743 3.45572715 3.06166196 1 3 C0.67 2.01 0.34 1.02 0 0 Z " fill="#97C0D3" transform="translate(126,246)"/>
<path d="M0 0 C0.33 0 0.66 0 1 0 C2.4083283 10.38642122 2.4083283 20.61357878 1 31 C0.34 31 -0.32 31 -1 31 C-1.495 32.485 -1.495 32.485 -2 34 C-1.979375 32.7625 -1.95875 31.525 -1.9375 30.25 C-1.92480296 27.8502602 -1.99596713 26.01492163 -2.625 23.6875 C-2.810625 22.8521875 -2.810625 22.8521875 -3 22 C-2.01 20.515 -2.01 20.515 -1 19 C-0.63566627 16.87662229 -0.63566627 16.87662229 -0.5859375 14.55078125 C-0.54726562 13.70322266 -0.50859375 12.85566406 -0.46875 11.98242188 C-0.4378125 11.10134766 -0.406875 10.22027344 -0.375 9.3125 C-0.33632812 8.41982422 -0.29765625 7.52714844 -0.2578125 6.60742188 C-0.16359782 4.4051538 -0.07798412 2.20289278 0 0 Z " fill="#1B548B" transform="translate(238,120)"/>
<path d="M0 0 C1.75406653 0.39920135 3.50318982 0.82015666 5.25 1.25 C6.22453125 1.48203125 7.1990625 1.7140625 8.203125 1.953125 C11.36547512 3.13679795 12.91666557 4.36110972 15 7 C15 7.99 15 8.98 15 10 C13.68 10 12.36 10 11 10 C10.34 9.34 9.68 8.68 9 8 C7.01178687 7.60235737 5.01055661 7.26224651 3 7 C2.87625 6.401875 2.7525 5.80375 2.625 5.1875 C2.04524015 2.73768652 2.04524015 2.73768652 0 0 Z " fill="#08518D" transform="translate(139,158)"/>
<path d="M0 0 C4.95 0 9.9 0 15 0 C15 5.28 15 10.56 15 16 C11.37 16 7.74 16 4 16 C6 14 6 14 9.625 13.875 C11.295625 13.936875 11.295625 13.936875 13 14 C13 9.71 13 5.42 13 1 C8.71 1 4.42 1 0 1 C0 0.67 0 0.34 0 0 Z " fill="#1E5285" transform="translate(487,149)"/>
<path d="M0 0 C0.71285156 0.20496094 1.42570312 0.40992188 2.16015625 0.62109375 C7.43976749 2.10620647 12.54711116 3.39412346 18 4 C18 4.33 18 4.66 18 5 C17.25234375 5.06058594 16.5046875 5.12117187 15.734375 5.18359375 C14.74953125 5.26738281 13.7646875 5.35117188 12.75 5.4375 C11.28820312 5.55931641 11.28820312 5.55931641 9.796875 5.68359375 C7.43538247 5.95074584 5.28098935 6.35371968 3 7 C2.67 6.01 2.34 5.02 2 4 C1.34 3.67 0.68 3.34 0 3 C-0.10957031 3.56589844 -0.21914063 4.13179687 -0.33203125 4.71484375 C-0.49058594 5.44832031 -0.64914062 6.18179688 -0.8125 6.9375 C-0.96332031 7.66839844 -1.11414063 8.39929688 -1.26953125 9.15234375 C-1.51058594 9.76207031 -1.75164062 10.37179688 -2 11 C-2.99 11.33 -3.98 11.66 -5 12 C-5 11.34 -5 10.68 -5 10 C-4.34 10 -3.68 10 -3 10 C-2.87625 8.906875 -2.7525 7.81375 -2.625 6.6875 C-2 3 -2 3 0 0 Z " fill="#205A8E" transform="translate(323,185)"/>
<path d="M0 0 C2 3 2 3 3.375 5.875 C6.10950835 11.1336699 8.06397574 13.90527556 13.75 15.8125 C15.16198858 16.22470957 16.57738516 16.62610764 18 17 C17.01 17.66 16.02 18.32 15 19 C11.08610984 18.16130925 8.33960156 17.22640104 5 15 C5 14.34 5 13.68 5 13 C4.34 13 3.68 13 3 13 C2.79503906 12.44570312 2.59007812 11.89140625 2.37890625 11.3203125 C2.10949219 10.59585938 1.84007812 9.87140625 1.5625 9.125 C1.29566406 8.40570313 1.02882813 7.68640625 0.75390625 6.9453125 C0.02083146 4.96351155 0.02083146 4.96351155 -1 3 C-0.67 2.01 -0.34 1.02 0 0 Z " fill="#5181AC" transform="translate(616,183)"/>
<path d="M0 0 C2.01631998 5.82492439 -0.40139055 11.69507738 -2.0625 17.375 C-2.42472656 18.62023437 -2.78695312 19.86546875 -3.16015625 21.1484375 C-3.43730469 22.08945313 -3.71445313 23.03046875 -4 24 C-6.15083538 17.54749386 -5.1500933 11.31589907 -3 5 C-2.34 5 -1.68 5 -1 5 C-0.67 3.35 -0.34 1.7 0 0 Z " fill="#5B89B2" transform="translate(149,120)"/>
<path d="M0 0 C0.71929687 -0.00773438 1.43859375 -0.01546875 2.1796875 -0.0234375 C7.49647556 -0.00352444 7.49647556 -0.00352444 9.75 2.25 C8.61820312 2.31058594 7.48640625 2.37117187 6.3203125 2.43359375 C4.83852855 2.51799917 3.3567584 2.60264717 1.875 2.6875 C0.75544922 2.74647461 0.75544922 2.74647461 -0.38671875 2.80664062 C-4.44986864 2.96573624 -4.44986864 2.96573624 -8.25 4.25 C-10.5829866 4.29022391 -12.91706666 4.29320247 -15.25 4.25 C-15.25 4.91 -15.25 5.57 -15.25 6.25 C-16.24 5.92 -17.23 5.59 -18.25 5.25 C-12.69365991 0.54848146 -6.99227077 -0.07683814 0 0 Z " fill="#7B9DB6" transform="translate(422.25,147.75)"/>
<path d="M0 0 C0.99 0.33 1.98 0.66 3 1 C2.44854729 6.23880078 1.57077907 10.97350697 0 16 C-1.17571451 12.32589215 -1.07366746 8.83070817 -1 5 C-2.32 6.65 -3.64 8.3 -5 10 C-5.99 9.67 -6.98 9.34 -8 9 C-7.23587913 7.87043002 -6.46340197 6.74651022 -5.6875 5.625 C-5.25824219 4.99851562 -4.82898438 4.37203125 -4.38671875 3.7265625 C-3 2 -3 2 0 0 Z " fill="#5B85A5" transform="translate(179,109)"/>
<path d="M0 0 C1.32 0.66 2.64 1.32 4 2 C4 3.32 4 4.64 4 6 C3.34 6 2.68 6 2 6 C2.99 9.3 3.98 12.6 5 16 C4.34 16.33 3.68 16.66 3 17 C2.16013916 15.06532058 1.32831973 13.12714871 0.5 11.1875 C0.0359375 10.10855469 -0.428125 9.02960938 -0.90625 7.91796875 C-2 5 -2 5 -2 2 C-1.34 2 -0.68 2 0 2 C0 1.34 0 0.68 0 0 Z " fill="#3370A0" transform="translate(74,154)"/>
<path d="M0 0 C1.65 0.33 3.3 0.66 5 1 C3.27432805 5.14161268 1.289707 6.56778184 -2.6875 8.3125 C-4.11899163 8.89011943 -5.554773 9.45766115 -7 10 C-6.45276317 6.62537285 -5.9451 4.91765 -4 2 C-2.68 2 -1.36 2 0 2 C0 1.34 0 0.68 0 0 Z " fill="#065497" transform="translate(407,152)"/>
<path d="M0 0 C0 0.33 0 0.66 0 1 C-4.455 1.495 -4.455 1.495 -9 2 C-9 5.96 -9 9.92 -9 14 C-5.04 14 -1.08 14 3 14 C3 14.33 3 14.66 3 15 C-1.95 15 -6.9 15 -12 15 C-12.27545969 4.53253182 -12.27545969 4.53253182 -10 1 C-6.78548731 -0.60725635 -3.56387464 -0.05748185 0 0 Z " fill="#97C8DF" transform="translate(498,134)"/>
<path d="M0 0 C0.33 0.66 0.66 1.32 1 2 C1.66 2 2.32 2 3 2 C3 1.34 3 0.68 3 0 C3.99 0 4.98 0 6 0 C5.21302675 3.41021743 4.12880057 6.68885166 3 10 C1.68 10 0.36 10 -1 10 C-2.1875 7.8125 -2.1875 7.8125 -3 5 C-1.625 2.1875 -1.625 2.1875 0 0 Z " fill="#1969A6" transform="translate(274,132)"/>
<path d="M0 0 C0.66 0 1.32 0 2 0 C1.6596875 1.5778125 1.6596875 1.5778125 1.3125 3.1875 C0.7068987 6.94364551 0.7068987 6.94364551 2.25 9.9375 C2.8275 10.618125 3.405 11.29875 4 12 C4.99 12 5.98 12 7 12 C7 11.34 7 10.68 7 10 C7.99 10 8.98 10 10 10 C10 11.32 10 12.64 10 14 C11.98 14 13.96 14 16 14 C16 14.33 16 14.66 16 15 C14.06318839 15.08107583 12.1254066 15.13922475 10.1875 15.1875 C9.10855469 15.22230469 8.02960938 15.25710938 6.91796875 15.29296875 C4 15 4 15 2.19140625 13.59375 C-0.42758753 10.09030915 -1.16683485 8.13886232 -0.625 3.75 C-0.41875 2.5125 -0.2125 1.275 0 0 Z " fill="#105088" transform="translate(116,284)"/>
<path d="M0 0 C2.33333333 2.33333333 4.66666667 4.66666667 7 7 C9.06874034 7.6425235 9.06874034 7.6425235 11 8 C11 8.99 11 9.98 11 11 C11.66 11 12.32 11 13 11 C13 11.66 13 12.32 13 13 C14.32 13 15.64 13 17 13 C17.33 13.99 17.66 14.98 18 16 C11.64157626 14.25143347 5.37781016 11.40294214 1.5 5.875 C0 3 0 3 0 0 Z " fill="#4B77A0" transform="translate(601,201)"/>
<path d="M0 0 C1.25985286 3.77955857 0.64024579 6.84423452 0.0625 10.6875 C-0.03740234 11.38939453 -0.13730469 12.09128906 -0.24023438 12.81445312 C-0.48729325 14.54386527 -0.74282852 16.2720627 -1 18 C-1.66 18 -2.32 18 -3 18 C-3 22.29 -3 26.58 -3 31 C-3.33 31 -3.66 31 -4 31 C-4.43815508 20.61410177 -3.4476652 11.08235147 -1 1 C-0.67 0.67 -0.34 0.34 0 0 Z " fill="#5B85AC" transform="translate(597,148)"/>
<path d="M0 0 C0.66 0.99 1.32 1.98 2 3 C1 6 1 6 -0.71484375 6.9140625 C-6.46678453 8.75387484 -11.97497406 9.63522807 -18 10 C-17.67 9.01 -17.34 8.02 -17 7 C-11.72 6.34 -6.44 5.68 -1 5 C-0.67 3.35 -0.34 1.7 0 0 Z " fill="#39699C" transform="translate(340,145)"/>
<path d="M0 0 C3.16520513 0.46320075 6.08152201 1.02690226 9.125 2.03125 C13.68686342 3.17171586 17.76520551 3.22288852 22.4375 3.125 C23.26443359 3.11597656 24.09136719 3.10695312 24.94335938 3.09765625 C26.96236708 3.07431512 28.98122356 3.03845288 31 3 C27.87525688 5.08316208 27.13587376 5.25530414 23.578125 5.265625 C22.71703125 5.26820313 21.8559375 5.27078125 20.96875 5.2734375 C20.0715625 5.26570312 19.174375 5.25796875 18.25 5.25 C17.36828125 5.25773438 16.4865625 5.26546875 15.578125 5.2734375 C10.36880563 5.25793357 5.86267986 4.95027267 1 3 C0.67 2.01 0.34 1.02 0 0 Z " fill="#4F7BA4" transform="translate(287,216)"/>
<path d="M0 0 C0.33 0 0.66 0 1 0 C1.33 1.98 1.66 3.96 2 6 C1.01 6.495 1.01 6.495 0 7 C0.0721875 7.68707031 0.144375 8.37414062 0.21875 9.08203125 C0.3115625 9.98308594 0.404375 10.88414062 0.5 11.8125 C0.5928125 12.70582031 0.685625 13.59914062 0.78125 14.51953125 C1 17 1 17 1 20 C0.01 19.67 -0.98 19.34 -2 19 C-3.15540447 16.03180576 -3.13452362 13.0945803 -3.125 9.9375 C-3.12757813 9.08027344 -3.13015625 8.22304687 -3.1328125 7.33984375 C-3 5 -3 5 -2 2 C-1.34 2 -0.68 2 0 2 C0 1.34 0 0.68 0 0 Z " fill="#5383AD" transform="translate(396,191)"/>
<path d="M0 0 C1.04542969 -0.01417969 2.09085938 -0.02835938 3.16796875 -0.04296875 C5.8125 0.1875 5.8125 0.1875 7.8125 2.1875 C6.95527344 2.22488281 6.09804688 2.26226562 5.21484375 2.30078125 C-2.91191111 2.76804675 -8.37102452 3.64318302 -15.1875 8.1875 C-15.1875 6.8675 -15.1875 5.5475 -15.1875 4.1875 C-14.1975 4.1875 -13.2075 4.1875 -12.1875 4.1875 C-11.8575 3.1975 -11.5275 2.2075 -11.1875 1.1875 C-7.41207523 0.3151745 -3.87269302 0.02405399 0 0 Z " fill="#3C6FA2" transform="translate(637.1875,137.8125)"/>
<path d="M0 0 C2.29160319 -0.02692484 4.58329546 -0.04636124 6.875 -0.0625 C8.15117187 -0.07410156 9.42734375 -0.08570313 10.7421875 -0.09765625 C14 0 14 0 16 1 C16 1.66 16 2.32 16 3 C14.85724609 2.93039063 14.85724609 2.93039063 13.69140625 2.859375 C6.45125422 2.60628604 1.3231572 3.42326461 -5 7 C-5 6.34 -5 5.68 -5 5 C-3.35 4.34 -1.7 3.68 0 3 C0 2.01 0 1.02 0 0 Z " fill="#4B7FA9" transform="translate(298,137)"/>
<path d="M0 0 C-0.99 0.495 -0.99 0.495 -2 1 C-3.13350534 3.01669827 -3.13350534 3.01669827 -4 5 C-4 4.34 -4 3.68 -4 3 C-5.98 3.66 -7.96 4.32 -10 5 C-10 5.66 -10 6.32 -10 7 C-11.0725 7.268125 -12.145 7.53625 -13.25 7.8125 C-16.56508928 8.86227827 -18.43877646 9.74612328 -21 12 C-19.52101764 7.5328696 -16.07943161 5.90553135 -12.1875 3.75 C-11.57068359 3.38648437 -10.95386719 3.02296875 -10.31835938 2.6484375 C-6.74708871 0.62939819 -4.11796461 -0.47062453 0 0 Z " fill="#527FAB" transform="translate(626,122)"/>
<path d="M0 0 C0.33 0.66 0.66 1.32 1 2 C0.505 3.134375 0.01 4.26875 -0.5 5.4375 C-2.40824907 8.87456927 -2.40824907 8.87456927 -1 12 C-0.67 12.99 -0.34 13.98 0 15 C-1.8125 15.625 -1.8125 15.625 -4 16 C-4.99 15.34 -5.98 14.68 -7 14 C-5.43181728 8.547001 -3.96189783 4.23513217 0 0 Z " fill="#4581AD" transform="translate(137,224)"/>
<path d="M0 0 C2.97 0.495 2.97 0.495 6 1 C6.33 1.99 6.66 2.98 7 4 C6.67 4.66 6.34 5.32 6 6 C3.6739143 6.38063221 1.33944736 6.71269945 -1 7 C-1.99 7.495 -1.99 7.495 -3 8 C-2.45276317 4.62537285 -1.9451 2.91765 0 0 Z " fill="#19609A" transform="translate(129,238)"/>
<path d="M0 0 C0.66 0.33 1.32 0.66 2 1 C1.3503125 2.0209375 1.3503125 2.0209375 0.6875 3.0625 C-1.17503916 6.3046978 -2.57729648 9.54486289 -4 13 C-4.33 12.01 -4.66 11.02 -5 10 C-6.32 10.33 -7.64 10.66 -9 11 C-8.34 9.02 -7.68 7.04 -7 5 C-6.34 5 -5.68 5 -5 5 C-5 4.34 -5 3.68 -5 3 C-2.625 1.3125 -2.625 1.3125 0 0 Z " fill="#1767A0" transform="translate(290,143)"/>
<path d="M0 0 C0 3 0 3 -0.9375 5.75 C-2.05557001 9.16997886 -2.57209725 12.43414372 -3 16 C-4.32 16.33 -5.64 16.66 -7 17 C-6.96586242 9.62628201 -4.87106829 5.46691762 0 0 Z " fill="#4A82AB" transform="translate(402,154)"/>
<path d="M0 0 C0 0.66 0 1.32 0 2 C1.24716797 2.05607422 1.24716797 2.05607422 2.51953125 2.11328125 C3.60621094 2.17902344 4.69289062 2.24476563 5.8125 2.3125 C7.43091797 2.39951172 7.43091797 2.39951172 9.08203125 2.48828125 C12.17497517 3.03068507 13.13022903 3.55289624 15 6 C11.56869793 7.71565103 8.00675125 5.74989016 4.5 4.6875 C3.71496094 4.46126953 2.92992187 4.23503906 2.12109375 4.00195312 C-3.74327495 2.25672505 -3.74327495 2.25672505 -6 0 C-2.25 -1.125 -2.25 -1.125 0 0 Z " fill="#4477A3" transform="translate(150,166)"/>
<path d="M0 0 C0.33 0.66 0.66 1.32 1 2 C-3.00232784 7.80276711 -6.00833661 12.15314552 -13 14 C-15.20703125 13.5546875 -15.20703125 13.5546875 -17 13 C-16.41992188 12.8040625 -15.83984375 12.608125 -15.2421875 12.40625 C-9.51588645 10.21400273 -6.53884783 7.8474045 -3.19140625 2.70703125 C-2 1 -2 1 0 0 Z " fill="#5E8AAC" transform="translate(179,300)"/>
<path d="M0 0 C0.99 0 1.98 0 3 0 C1.34229667 4.49324849 -0.84982162 8.61186146 -3.125 12.8125 C-3.49753906 13.50537109 -3.87007813 14.19824219 -4.25390625 14.91210938 C-5.16690377 16.60934836 -6.08312716 18.30485138 -7 20 C-7.33 19.34 -7.66 18.68 -8 18 C-7.01789629 15.9911515 -6.01559401 13.99212671 -5 12 C-4.64386903 10.33805547 -4.30791692 8.671549 -4 7 C-2.86674578 4.43129043 -1.56903504 2.35355256 0 0 Z " fill="#6C96B7" transform="translate(124,170)"/>
<path d="M0 0 C2.64 0.33 5.28 0.66 8 1 C8 1.66 8 2.32 8 3 C13.64800112 4.8417395 19.08507728 5.54775239 25 6 C25 6.33 25 6.66 25 7 C16.14666916 7.79839657 8.9403058 6.00657632 1 2 C0.67 1.34 0.34 0.68 0 0 Z " fill="#7BA2C0" transform="translate(137,308)"/>
<path d="M0 0 C3.10504071 0.29604601 3.92635957 0.91107293 5.95703125 3.36328125 C6.87548828 4.82314453 6.87548828 4.82314453 7.8125 6.3125 C8.43769531 7.27800781 9.06289062 8.24351562 9.70703125 9.23828125 C11.14326493 12.30600696 10.97576789 12.92996106 10 16 C8.3305554 13.52266346 6.66433808 11.04326339 5 8.5625 C4.28457031 7.50192383 4.28457031 7.50192383 3.5546875 6.41992188 C3.10351562 5.74638672 2.65234375 5.07285156 2.1875 4.37890625 C1.76855469 3.7557251 1.34960938 3.13254395 0.91796875 2.49047852 C0 1 0 1 0 0 Z " fill="#40709F" transform="translate(83,180)"/>
<path d="M0 0 C0.99 0.33 1.98 0.66 3 1 C3 2.32 3 3.64 3 5 C6.96 5.33 10.92 5.66 15 6 C13 8 13 8 9.9609375 8.1953125 C8.77757812 8.17210937 7.59421875 8.14890625 6.375 8.125 C5.18648438 8.10695312 3.99796875 8.08890625 2.7734375 8.0703125 C1.85820312 8.04710937 0.94296875 8.02390625 0 8 C0 5.36 0 2.72 0 0 Z " fill="#0C538B" transform="translate(433,211)"/>
<path d="M0 0 C0.33 0 0.66 0 1 0 C0.85892253 1.45880109 0.71197585 2.91703551 0.5625 4.375 C0.48128906 5.18710938 0.40007812 5.99921875 0.31640625 6.8359375 C0 9 0 9 -1 11 C-1.99 11 -2.98 11 -4 11 C-4 11.66 -4 12.32 -4 13 C-4.66 13 -5.32 13 -6 13 C-6.33 13.99 -6.66 14.98 -7 16 C-7.66 15.67 -8.32 15.34 -9 15 C-8.51789063 14.25234375 -8.03578125 13.5046875 -7.5390625 12.734375 C-6.90742188 11.74953125 -6.27578125 10.7646875 -5.625 9.75 C-4.99851563 8.77546875 -4.37203125 7.8009375 -3.7265625 6.796875 C-2.34865148 4.56478385 -1.11687358 2.36912578 0 0 Z " fill="#42719D" transform="translate(173,150)"/>
<path d="M0 0 C2.75 -0.375 2.75 -0.375 6 0 C8.3125 3 8.3125 3 10 6 C10.33 6 10.66 6 11 6 C11 8.64 11 11.28 11 14 C10.01 14.33 9.02 14.66 8 15 C7.67 11.7 7.34 8.4 7 5 C6.01 4.67 5.02 4.34 4 4 C3.67 3.34 3.34 2.68 3 2 C2.01 1.34 1.02 0.68 0 0 Z " fill="#468AB8" transform="translate(191,256)"/>
<path d="M0 0 C-1.11328125 1.984375 -1.11328125 1.984375 -3 4 C-5.91796875 4.390625 -5.91796875 4.390625 -9.1875 4.25 C-10.27417969 4.21390625 -11.36085938 4.1778125 -12.48046875 4.140625 C-13.31191406 4.09421875 -14.14335937 4.0478125 -15 4 C-15.33 3.34 -15.66 2.68 -16 2 C-14.27192682 1.66104344 -12.54248026 1.32908475 -10.8125 1 C-9.84957031 0.814375 -8.88664062 0.62875 -7.89453125 0.4375 C-5.2065794 0.03122388 -2.71228981 -0.07933572 0 0 Z " fill="#266196" transform="translate(429,203)"/>
<path d="M0 0 C1.25317665 2.40714348 2.18140212 4.57821926 3 7.1875 C3.67987492 10.12865478 3.67987492 10.12865478 6 11 C7.25 14.375 7.25 14.375 8 18 C7.34 18.99 6.68 19.98 6 21 C2.37884886 13.97149263 0.18954422 7.94362584 0 0 Z " fill="#4B7CA7" transform="translate(594,180)"/>
<path d="M0 0 C2.40967639 2.90916113 3.65397951 5.43697576 4.6875 9.0625 C4.93886719 9.91972656 5.19023437 10.77695313 5.44921875 11.66015625 C6 14 6 14 6 17 C5.34 17 4.68 17 4 17 C1.36536213 11.15439723 -0.56131481 6.45512034 0 0 Z " fill="#6794B5" transform="translate(232,99)"/>
<path d="M0 0 C0.66 0.33 1.32 0.66 2 1 C1.67 3.31 1.34 5.62 1 8 C-5.6 8 -12.2 8 -19 8 C-19 7.67 -19 7.34 -19 7 C-10.09 6.01 -10.09 6.01 -1 5 C-0.67 3.35 -0.34 1.7 0 0 Z " fill="#5A86A4" transform="translate(452,212)"/>
<path d="M0 0 C0.99 0 1.98 0 3 0 C3 1.65 3 3.3 3 5 C4.65 5.33 6.3 5.66 8 6 C8.33 8.31 8.66 10.62 9 13 C5.21429586 11.73809862 4.78168429 10.45144185 2.8125 7.0625 C2.28269531 6.16660156 1.75289063 5.27070313 1.20703125 4.34765625 C0 2 0 2 0 0 Z " fill="#4C7DA9" transform="translate(268,198)"/>
<path d="M0 0 C0.33 0 0.66 0 1 0 C1.33 4.95 1.66 9.9 2 15 C0.68 15.33 -0.64 15.66 -2 16 C-2.66 15.34 -3.32 14.68 -4 14 C-3.2884375 12.205625 -3.2884375 12.205625 -2.5625 10.375 C-1.26517227 6.93585762 -0.45763049 3.66104396 0 0 Z " fill="#2F6C9E" transform="translate(194,119)"/>
<path d="M0 0 C0.33 0 0.66 0 1 0 C1 1.65 1 3.3 1 5 C-4.28 5 -9.56 5 -15 5 C-14.67 4.34 -14.34 3.68 -14 3 C-9.71 3 -5.42 3 -1 3 C-0.67 2.01 -0.34 1.02 0 0 Z " fill="#185489" transform="translate(411,167)"/>
<path d="M0 0 C0.33 1.32 0.66 2.64 1 4 C0.01 4 -0.98 4 -2 4 C-2.33 6.31 -2.66 8.62 -3 11 C-3.66 11 -4.32 11 -5 11 C-5 14.63 -5 18.26 -5 22 C-5.33 22 -5.66 22 -6 22 C-6.4724754 14.12541005 -6.24928226 8.74886006 -2 2 C-1.34 1.34 -0.68 0.68 0 0 Z " fill="#5686AC" transform="translate(473,127)"/>
<path d="M0 0 C0 0.99 0 1.98 0 3 C-2.75 5.75 -2.75 5.75 -6 8 C-8.375 7.8125 -8.375 7.8125 -10 7 C-9.34 5.02 -8.68 3.04 -8 1 C-7.34 1 -6.68 1 -6 1 C-5.34 1.99 -4.68 2.98 -4 4 C-2.68 2.68 -1.36 1.36 0 0 Z " fill="#5189B4" transform="translate(172,98)"/>
<path d="M0 0 C8.00329877 -0.78463713 8.00329877 -0.78463713 11.9375 2.3125 C13.35592383 4.16074923 14.70766147 6.0614922 16 8 C14.68 8 13.36 8 12 8 C8 3.77777778 8 3.77777778 8 1 C5.36 1 2.72 1 0 1 C0 0.67 0 0.34 0 0 Z " fill="#4A79A2" transform="translate(123,299)"/>
<path d="M0 0 C1.5 1.375 1.5 1.375 3 3 C3 3.66 3 4.32 3 5 C3.66 5 4.32 5 5 5 C5.33 7.97 5.66 10.94 6 14 C3.81302498 11.20375042 2.00847187 8.36692128 0.3125 5.25 C-0.12449219 4.45078125 -0.56148438 3.6515625 -1.01171875 2.828125 C-1.50091797 1.92320312 -1.50091797 1.92320312 -2 1 C-1.34 0.67 -0.68 0.34 0 0 Z " fill="#4A7BA5" transform="translate(96,195)"/>
<path d="M0 0 C4.15422634 3.69264564 7.27087259 7.63296818 9 13 C8.67 13.99 8.34 14.98 8 16 C4.55783328 13.3401439 4.00495326 10.09711714 3 6 C2.34 6 1.68 6 1 6 C0.67 4.02 0.34 2.04 0 0 Z " fill="#79A0C1" transform="translate(443,153)"/>
<path d="M0 0 C0.66 0.99 1.32 1.98 2 3 C0.8828125 6.13671875 0.8828125 6.13671875 -0.875 9.6875 C-1.44992187 10.86699219 -2.02484375 12.04648438 -2.6171875 13.26171875 C-3.30167969 14.61716797 -3.30167969 14.61716797 -4 16 C-4.66 15.67 -5.32 15.34 -6 15 C-4.36041242 9.76727367 -2.61047965 4.84803364 0 0 Z " fill="#29608F" transform="translate(603,135)"/>
<path d="M0 0 C0.99 0.99 1.98 1.98 3 3 C3.33 2.34 3.66 1.68 4 1 C5.98 1 7.96 1 10 1 C7.14723863 3.93200474 4.34920216 6.64315404 1 9 C0.63877119 7.68942607 0.28619689 6.37646376 -0.0625 5.0625 C-0.35833984 3.96615234 -0.35833984 3.96615234 -0.66015625 2.84765625 C-0.77230469 2.23792969 -0.88445312 1.62820312 -1 1 C-0.67 0.67 -0.34 0.34 0 0 Z " fill="#2C6C9E" transform="translate(172,89)"/>
<path d="M0 0 C0.99 0.33 1.98 0.66 3 1 C2.23723405 3.08630053 1.46445843 5.1689432 0.6875 7.25 C0.04361328 8.99023438 0.04361328 8.99023438 -0.61328125 10.765625 C-1.82598565 13.5941299 -3.02942974 15.66536544 -5 18 C-4.67 15.69 -4.34 13.38 -4 11 C-3.34 11 -2.68 11 -2 11 C-1.7834375 9.1128125 -1.7834375 9.1128125 -1.5625 7.1875 C-1.26251314 4.57332877 -0.84186703 2.52560108 0 0 Z " fill="#356D9C" transform="translate(113,189)"/>
<path d="M0 0 C0.66 0.33 1.32 0.66 2 1 C0.63016497 4.16115776 0.0109362 4.9927092 -3 7 C-4.21284876 10.05429073 -4.21284876 10.05429073 -5 13 C-5.99 12.67 -6.98 12.34 -8 12 C-8 11.34 -8 10.68 -8 10 C-7.01 10 -6.02 10 -5 10 C-4.9175 9.0925 -4.835 8.185 -4.75 7.25 C-3.90751268 3.59922161 -2.82118382 2.36615417 0 0 Z M-7 13 C-6.34 13.66 -5.68 14.32 -5 15 C-5.99 15.66 -6.98 16.32 -8 17 C-7.67 15.68 -7.34 14.36 -7 13 Z " fill="#2B6D9F" transform="translate(479,121)"/>
<path d="M0 0 C1.46063143 0.78741859 2.91843173 1.5800905 4.375 2.375 C5.59316406 3.03628906 5.59316406 3.03628906 6.8359375 3.7109375 C9 5 9 5 11 7 C10.625 9.125 10.625 9.125 10 11 C7.95880212 9.38405168 5.95927063 7.7143618 4 6 C4 5.34 4 4.68 4 4 C3.34 4 2.68 4 2 4 C2 3.34 2 2.68 2 2 C1.34 2 0.68 2 0 2 C0 1.34 0 0.68 0 0 Z " fill="#5179A7" transform="translate(657,124)"/>
<path d="M0 0 C4.78373993 1.6401394 8.70723897 3.78383824 11.3125 8.25 C11.539375 8.8275 11.76625 9.405 12 10 C11.01 10.33 10.02 10.66 9 11 C8.67 9.68 8.34 8.36 8 7 C7.34 8.32 6.68 9.64 6 11 C5.34 10.34 4.68 9.68 4 9 C4 8.34 4 7.68 4 7 C4.66 7 5.32 7 6 7 C3.72584713 3.62911733 3.72584713 3.62911733 0 2 C0 1.34 0 0.68 0 0 Z " fill="#6594BC" transform="translate(204,68)"/>
<path d="M0 0 C0.66 0.33 1.32 0.66 2 1 C1.54996653 6.62541841 0.31558515 9.61487125 -3 14 C-3.33 12.68 -3.66 11.36 -4 10 C-3.34 10 -2.68 10 -2 10 C-1.93941406 9.36191406 -1.87882813 8.72382813 -1.81640625 8.06640625 C-1.73261719 7.24011719 -1.64882812 6.41382813 -1.5625 5.5625 C-1.48128906 4.73878906 -1.40007812 3.91507813 -1.31640625 3.06640625 C-1 1 -1 1 0 0 Z " fill="#33699A" transform="translate(201,229)"/>
<path d="M0 0 C0.44730469 0.40992188 0.89460938 0.81984375 1.35546875 1.2421875 C7.40996562 6.63830625 12.00273116 8.18671842 20 9 C20 9.33 20 9.66 20 10 C9.95027624 10.19705341 9.95027624 10.19705341 6 9 C5.34 8.34 4.68 7.68 4 7 C3.34 6.67 2.68 6.34 2 6 C1.27306096 4.02111039 0.60183749 2.02045442 0 0 Z " fill="#78A0BE" transform="translate(288,192)"/>
<path d="M0 0 C0.99 0.33 1.98 0.66 3 1 C0.36 3.64 -2.28 6.28 -5 9 C-5.66 8.34 -6.32 7.68 -7 7 C-7 6.01 -7 5.02 -7 4 C-6.030625 3.525625 -5.06125 3.05125 -4.0625 2.5625 C-1.19522563 1.29806053 -1.19522563 1.29806053 0 0 Z " fill="#336EA0" transform="translate(174,127)"/>
<path d="M0 0 C0.33 0 0.66 0 1 0 C0.49595057 4.2844202 -0.01340781 8.13718186 -2 12 C-2.99 12.66 -3.98 13.32 -5 14 C-4.46515599 8.65155992 -2.53309233 4.64203897 0 0 Z " fill="#5081AB" transform="translate(270,139)"/>
<path d="M0 0 C0 0.66 0 1.32 0 2 C-3.96 3.32 -7.92 4.64 -12 6 C-12 5.01 -12 4.02 -12 3 C-7.77050005 0.58314288 -4.87664009 -0.34833144 0 0 Z " fill="#3A6E9A" transform="translate(196,82)"/>
<path d="M0 0 C-0.45822468 3.46941546 -0.89131683 6.67395049 -2 10 C-2.99 9.67 -3.98 9.34 -5 9 C-4.38709677 3.48387097 -4.38709677 3.48387097 -2.5 1.125 C-1 0 -1 0 0 0 Z " fill="#0C548F" transform="translate(336,200)"/>
<path d="M0 0 C-1.7015625 0.5259375 -1.7015625 0.5259375 -3.4375 1.0625 C-5.39305564 1.79385681 -5.39305564 1.79385681 -7 3 C-8.0615942 6.58863524 -8.0615942 6.58863524 -8 10 C-8.66 9.67 -9.32 9.34 -10 9 C-9.67 5.7 -9.34 2.4 -9 -1 C-5.22102349 -2.0497157 -3.35080929 -2.10976881 0 0 Z " fill="#336999" transform="translate(421,192)"/>
<path d="M0 0 C2.475 0.99 2.475 0.99 5 2 C4.42655063 4.86724686 4.1385485 5.8614515 2 8 C1.01 8 0.02 8 -1 8 C-0.67 5.36 -0.34 2.72 0 0 Z " fill="#5A84AA" transform="translate(160,135)"/>
<path d="M0 0 C5.45479185 0.56820748 9.91059256 1.94637945 15 4 C12 5 12 5 10.125 4.5 C7.48719714 3.8793405 5.6018854 4.34952865 3 5 C2.67 4.01 2.34 3.02 2 2 C1.34 1.34 0.68 0.68 0 0 Z " fill="#3F74A6" transform="translate(174,55)"/>
<path d="M0 0 C1.32 0 2.64 0 4 0 C4 1.65 4 3.3 4 5 C4.99 5 5.98 5 7 5 C7.33 7.31 7.66 9.62 8 12 C6.66666667 10.33333333 5.33333333 8.66666667 4 7 C3.2575 6.113125 2.515 5.22625 1.75 4.3125 C0 2 0 2 0 0 Z " fill="#6692B7" transform="translate(653,217)"/>
<path d="M0 0 C6.46153846 0.46153846 6.46153846 0.46153846 9 3 C6.69 2.67 4.38 2.34 2 2 C0.68 4.31 -0.64 6.62 -2 9 C-2.33 9 -2.66 9 -3 9 C-2.25 2.25 -2.25 2.25 0 0 Z " fill="#6794B8" transform="translate(130,161)"/>
<path d="M0 0 C2.0625 0.4375 2.0625 0.4375 4 1 C3.34 1 2.68 1 2 1 C2 1.99 2 2.98 2 4 C2.66 4 3.32 4 4 4 C4 4.66 4 5.32 4 6 C3.01 6 2.02 6 1 6 C0.67 6.99 0.34 7.98 0 9 C-1.36623674 6.26752652 -1.128426 4.01801098 -1 1 C-0.67 0.67 -0.34 0.34 0 0 Z " fill="#015A9A" transform="translate(396,197)"/>
<path d="M0 0 C1.2964351 0.76278623 2.58699148 1.53556959 3.875 2.3125 C4.59429687 2.74175781 5.31359375 3.17101562 6.0546875 3.61328125 C8 5 8 5 10 8 C9.67 8.99 9.34 9.98 9 11 C8.1646875 9.8553125 8.1646875 9.8553125 7.3125 8.6875 C5.16149517 5.89706965 5.16149517 5.89706965 2.25 4.375 C1.5075 3.92125 0.765 3.4675 0 3 C0 2.01 0 1.02 0 0 Z " fill="#6D93B3" transform="translate(327,126)"/>
<path d="M0 0 C4.8333472 -0.08333357 9.23692563 0.04738513 14 1 C14 1.33 14 1.66 14 2 C12.41773035 2.19627391 10.83410729 2.38165538 9.25 2.5625 C8.36828125 2.66691406 7.4865625 2.77132812 6.578125 2.87890625 C4.11567549 2.99456676 2.33461936 2.73638695 0 2 C0 1.34 0 0.68 0 0 Z " fill="#316F9E" transform="translate(486,119)"/>
<path d="M0 0 C0.66 0.33 1.32 0.66 2 1 C1.57847656 1.38671875 1.15695313 1.7734375 0.72265625 2.171875 C-0.09912109 2.95304687 -0.09912109 2.95304687 -0.9375 3.75 C-1.48277344 4.26046875 -2.02804688 4.7709375 -2.58984375 5.296875 C-4.16044692 7.19378076 -4.58731286 8.59701161 -5 11 C-6.32 11.33 -7.64 11.66 -9 12 C-7.54718935 6.67302761 -3.91888622 3.63597198 0 0 Z " fill="#729ABD" transform="translate(97,72)"/>
<path d="M0 0 C0.79921875 0.29648437 1.5984375 0.59296875 2.421875 0.8984375 C3.02515625 1.13820312 3.6284375 1.37796875 4.25 1.625 C0.55581799 2.856394 -1.9556261 2.26932764 -5.75 1.625 C-5.75 2.285 -5.75 2.945 -5.75 3.625 C-6.74 3.295 -7.73 2.965 -8.75 2.625 C-8.75 1.965 -8.75 1.305 -8.75 0.625 C-5.33677284 -1.55132374 -3.73452846 -1.42790794 0 0 Z " fill="#055193" transform="translate(186.75,59.375)"/>
<path d="M0 0 C0.99 0.99 1.98 1.98 3 3 C1.9024777 5.99324263 1.32317108 6.84610901 -1.625 8.25 C-2.40875 8.4975 -3.1925 8.745 -4 9 C-4 8.01 -4 7.02 -4 6 C-2.68 5.67 -1.36 5.34 0 5 C0 3.35 0 1.7 0 0 Z " fill="#507EA0" transform="translate(674,215)"/>
<path d="M0 0 C1.44197868 2.88395737 1.58833581 5.82430479 2 9 C0.02 9.99 0.02 9.99 -2 11 C-2 7.7 -2 4.4 -2 1 C-1.34 0.67 -0.68 0.34 0 0 Z " fill="#055496" transform="translate(411,195)"/>
<path d="M0 0 C1.1875 1.6875 1.1875 1.6875 2 4 C0.8125 6.6875 0.8125 6.6875 -1 9 C-1.99 9.33 -2.98 9.66 -4 10 C-3.5205537 5.78087253 -2.83374881 3.20336822 0 0 Z " fill="#6290B6" transform="translate(155,193)"/>
<path d="M0 0 C0.66 0 1.32 0 2 0 C2.70173653 4.38585329 3.10834375 8.55790643 3 13 C-0.22430866 8.16353702 -0.09242903 5.73060016 0 0 Z " fill="#437BA2" transform="translate(265,185)"/>
<path d="M0 0 C0.33 0 0.66 0 1 0 C0.03644647 10.55808656 0.03644647 10.55808656 -1 15 C-1.33 15 -1.66 15 -2 15 C-2 11.04 -2 7.08 -2 3 C-1.34 3 -0.68 3 0 3 C0 2.01 0 1.02 0 0 Z " fill="#729BBC" transform="translate(237,151)"/>
<path d="M0 0 C0 1.65 0 3.3 0 5 C-2.64 5.33 -5.28 5.66 -8 6 C-6.91793075 3.04890203 -6.32605724 2.15905231 -3.4375 0.75 C-1 0 -1 0 0 0 Z " fill="#02589C" transform="translate(177,117)"/>
<path d="M0 0 C3.7952131 1.49097658 5.61042731 3.75700849 8 7 C5.6875 7.3125 5.6875 7.3125 3 7 C1.18116991 4.6167054 0 3.04181663 0 0 Z " fill="#1F568E" transform="translate(214,78)"/>
<path d="M0 0 C0.66 0 1.32 0 2 0 C2.33 1.98 2.66 3.96 3 6 C0.36 6 -2.28 6 -5 6 C-3.38405168 3.95880212 -1.7143618 1.95927063 0 0 Z " fill="#05518F" transform="translate(99,72)"/>
<path d="M0 0 C2.475 0.495 2.475 0.495 5 1 C5 4.63 5 8.26 5 12 C4.01 11.67 3.02 11.34 2 11 C2.66 11 3.32 11 4 11 C3.52269162 9.5410574 3.04308958 8.08286504 2.5625 6.625 C2.16224609 5.40683594 2.16224609 5.40683594 1.75390625 4.1640625 C1.04820271 1.98968201 1.04820271 1.98968201 0 0 Z " fill="#7CA1BE" transform="translate(429,165)"/>
<path d="M0 0 C1.65 0 3.3 0 5 0 C5.33 0.66 5.66 1.32 6 2 C3.41210938 3.07421875 3.41210938 3.07421875 0.82421875 4.1484375 C-1.26533932 5.06806692 -1.26533932 5.06806692 -4 7 C-4 5.68 -4 4.36 -4 3 C-3.01 3 -2.02 3 -1 3 C-0.67 2.01 -0.34 1.02 0 0 Z " fill="#5286AC" transform="translate(626,139)"/>
<path d="M0 0 C1.32 0 2.64 0 4 0 C4 0.66 4 1.32 4 2 C2.68 2.33 1.36 2.66 0 3 C-0.33 6.3 -0.66 9.6 -1 13 C-1.33 13 -1.66 13 -2 13 C-2.05447047 11.58376784 -2.09300508 10.16691809 -2.125 8.75 C-2.14820312 7.96109375 -2.17140625 7.1721875 -2.1953125 6.359375 C-1.9828378 3.79268059 -1.28654105 2.2083933 0 0 Z " fill="#7C9CB9" transform="translate(113,257)"/>
<path d="M0 0 C3.3 0.33 6.6 0.66 10 1 C9.67 1.99 9.34 2.98 9 4 C5.625 4.125 5.625 4.125 2 4 C1.34 3.34 0.68 2.68 0 2 C0 1.34 0 0.68 0 0 Z " fill="#4C7FAA" transform="translate(538,200)"/>
<path d="M0 0 C0.33 0 0.66 0 1 0 C0.25 6.625 0.25 6.625 -2 10 C-2.99 9.67 -3.98 9.34 -5 9 C-3.35 6.03 -1.7 3.06 0 0 Z " fill="#507DA6" transform="translate(164,179)"/>
<path d="M0 0 C0.66 0.33 1.32 0.66 2 1 C1.25 3.4375 1.25 3.4375 0 6 C-2.125 6.8125 -2.125 6.8125 -4 7 C-3.67 6.01 -3.34 5.02 -3 4 C-3.66 3.67 -4.32 3.34 -5 3 C-3.35 2.67 -1.7 2.34 0 2 C0 1.34 0 0.68 0 0 Z " fill="#286198" transform="translate(621,143)"/>
<path d="M0 0 C0.99 0 1.98 0 3 0 C2.42647107 3.87132028 0.51295648 6.08172796 -2 9 C-1.125 2.25 -1.125 2.25 0 0 Z " fill="#467CA5" transform="translate(141,144)"/>
<path d="M0 0 C2.3125 1.5625 2.3125 1.5625 4 3 C3.67 3.66 3.34 4.32 3 5 C-0.61941735 3.49760034 -3.7321794 2.17854707 -7 0 C-4.25700998 -1.37149501 -2.91518346 -0.83290956 0 0 Z " fill="#19558C" transform="translate(323,123)"/>
<path d="M0 0 C1.32 0 2.64 0 4 0 C4 1.32 4 2.64 4 4 C2.35 4.33 0.7 4.66 -1 5 C-1 1 -1 1 0 0 Z " fill="#055696" transform="translate(288,123)"/>
<path d="M0 0 C0.33 0.66 0.66 1.32 1 2 C4.02934491 2.65772428 4.02934491 2.65772428 7 3 C7 3.33 7 3.66 7 4 C5.56465159 4.2226746 4.12654475 4.42761906 2.6875 4.625 C1.88699219 4.74101563 1.08648438 4.85703125 0.26171875 4.9765625 C-2 5 -2 5 -5 3 C-3.35 2.67 -1.7 2.34 0 2 C0 1.34 0 0.68 0 0 Z " fill="#4075A5" transform="translate(628,118)"/>
<path d="M0 0 C0.99 0.33 1.98 0.66 3 1 C3.33 2.98 3.66 4.96 4 7 C3.01 7.495 3.01 7.495 2 8 C2 7.01 2 6.02 2 5 C1.01 5 0.02 5 -1 5 C-0.67 3.35 -0.34 1.7 0 0 Z " fill="#12629A" transform="translate(195,265)"/>
<path d="M0 0 C0.33 1.32 0.66 2.64 1 4 C0.34 4 -0.32 4 -1 4 C-1.33 5.65 -1.66 7.3 -2 9 C-2.99 9.33 -3.98 9.66 -5 10 C-3.84414715 6.08788267 -2.64465038 3.1254959 0 0 Z " fill="#5A8CB0" transform="translate(143,214)"/>
<path d="M0 0 C4.75 0.875 4.75 0.875 7 2 C7 2.99 7 3.98 7 5 C3 5 3 5 1.25 3.625 C0 2 0 2 0 0 Z " fill="#04589D" transform="translate(147,163)"/>
<path d="M0 0 C0.66 0.33 1.32 0.66 2 1 C0.26440562 4.057952 -1.38472619 6.63379989 -4 9 C-5 7 -5 7 -5 3 C-2.625 1.1875 -2.625 1.1875 0 0 Z " fill="#16518A" transform="translate(290,143)"/>
<path d="M0 0 C2.24027294 2.88035092 4.16172132 5.84866512 6 9 C3.28071483 8.62492618 2.15781339 8.15781339 0.1875 6.1875 C-1 4 -1 4 -0.6875 1.75 C-0.460625 1.1725 -0.23375 0.595 0 0 Z " fill="#306999" transform="translate(668,206)"/>
<path d="M0 0 C0.33 1.32 0.66 2.64 1 4 C-0.98 5.32 -2.96 6.64 -5 8 C-5.66 7.67 -6.32 7.34 -7 7 C-4.69 4.69 -2.38 2.38 0 0 Z " fill="#5483AA" transform="translate(189,134)"/>
<path d="M0 0 C0.33 0.99 0.66 1.98 1 3 C-0.32 3 -1.64 3 -3 3 C-3 3.66 -3 4.32 -3 5 C-4.65 5 -6.3 5 -8 5 C-3.16129032 0 -3.16129032 0 0 0 Z " fill="#457BA5" transform="translate(115,62)"/>
<path d="M0 0 C0 0.66 0 1.32 0 2 C-3.41831915 4.5393228 -5.75776898 5.3636198 -10 5 C-8.28489314 1.56978628 -3.75681361 0 0 0 Z " fill="#1B5589" transform="translate(329,212)"/>
<path d="M0 0 C0.33 0 0.66 0 1 0 C1 1.65 1 3.3 1 5 C-2.06890187 6.53445094 -4.70094266 5.54984289 -8 5 C-8 4.67 -8 4.34 -8 4 C-6.576875 3.566875 -6.576875 3.566875 -5.125 3.125 C-1.94788422 2.23174891 -1.94788422 2.23174891 0 0 Z " fill="#427FAF" transform="translate(642,197)"/>
<path d="M0 0 C0.99 0.33 1.98 0.66 3 1 C3 2.32 3 3.64 3 5 C1.35 5 -0.3 5 -2 5 C-1.125 1.125 -1.125 1.125 0 0 Z " fill="#346B98" transform="translate(645,177)"/>
<path d="M0 0 C0.185625 0.9590625 0.185625 0.9590625 0.375 1.9375 C0.684375 2.9584375 0.684375 2.9584375 1 4 C1.66 4.33 2.32 4.66 3 5 C1 7 -1 9 -3 11 C-2.69217504 9.35328588 -2.37860766 7.70764424 -2.0625 6.0625 C-1.88847656 5.14597656 -1.71445312 4.22945312 -1.53515625 3.28515625 C-1 1 -1 1 0 0 Z " fill="#065592" transform="translate(272,138)"/>
<path d="M0 0 C0.99 1.32 1.98 2.64 3 4 C2.01 4 1.02 4 0 4 C0.33 5.65 0.66 7.3 1 9 C0.01 8.67 -0.98 8.34 -2 8 C-2.6875 5.6875 -2.6875 5.6875 -3 3 C-1.5625 1.1875 -1.5625 1.1875 0 0 Z " fill="#1C639C" transform="translate(668,133)"/>
<path d="M0 0 C0.99 0.33 1.98 0.66 3 1 C2.67 3.31 2.34 5.62 2 8 C0.4375 6.8125 0.4375 6.8125 -1 5 C-0.6875 2.3125 -0.6875 2.3125 0 0 Z " fill="#4A8DB6" transform="translate(431,211)"/>
<path d="M0 0 C0.99 1.485 0.99 1.485 2 3 C2.680625 3.28875 3.36125 3.5775 4.0625 3.875 C6 5 6 5 6.75 7.625 C6.8325 8.40875 6.915 9.1925 7 10 C5.82174642 9.09827532 4.65768423 8.17798498 3.5 7.25 C2.8503125 6.73953125 2.200625 6.2290625 1.53125 5.703125 C0 4 0 4 0 0 Z " fill="#7296B7" transform="translate(632,186)"/>
<path d="M0 0 C0.66 0.33 1.32 0.66 2 1 C2 2.32 2 3.64 2 5 C0.68 5.33 -0.64 5.66 -2 6 C-2 2 -2 2 0 0 Z " fill="#075792" transform="translate(230,98)"/>
<path d="M0 0 C2.79872437 2.52788007 4.45773019 4.20411134 5 8 C4.01 8 3.02 8 2 8 C0.23537317 4.91190305 0 3.76687864 0 0 Z " fill="#5885B3" transform="translate(227,91)"/>
<path d="M0 0 C0.66 0.33 1.32 0.66 2 1 C1.67 1.99 1.34 2.98 1 4 C-1.31 4.33 -3.62 4.66 -6 5 C-4.00856305 2.01284458 -3.23356015 1.21258505 0 0 Z " fill="#4C7CA8" transform="translate(105,67)"/>
<path d="M0 0 C-3.08888522 2.05925681 -3.70935927 2.2390374 -7.1875 2.125 C-9.0746875 2.063125 -9.0746875 2.063125 -11 2 C-6.80312837 -0.79791442 -4.79748656 -1.16695619 0 0 Z " fill="#366C97" transform="translate(135,56)"/>
<path d="M0 0 C0.66 0.66 1.32 1.32 2 2 C2.99 2 3.98 2 5 2 C2.03 4.475 2.03 4.475 -1 7 C-1.04254356 5.00045254 -1.04080783 2.99958364 -1 1 C-0.67 0.67 -0.34 0.34 0 0 Z " fill="#1F669E" transform="translate(145,211)"/>
<path d="M0 0 C2.4375 1.125 2.4375 1.125 5 3 C5.8125 6.1875 5.8125 6.1875 6 9 C3.59927045 6.11912454 1.52708963 3.43595166 0 0 Z " fill="#6D98BD" transform="translate(88,187)"/>
<path d="M0 0 C2.97 0.99 5.94 1.98 9 3 C9 3.33 9 3.66 9 4 C2.47692308 4.36923077 2.47692308 4.36923077 0.0625 2.5 C-0.4634375 1.7575 -0.4634375 1.7575 -1 1 C-0.67 0.67 -0.34 0.34 0 0 Z " fill="#3B6F9B" transform="translate(150,161)"/>
<path d="M0 0 C0.33 0.66 0.66 1.32 1 2 C1.99 2 2.98 2 4 2 C3.67 2.66 3.34 3.32 3 4 C-0.0625 4.625 -0.0625 4.625 -3 5 C-3 4.01 -3 3.02 -3 2 C-2.01 1.34 -1.02 0.68 0 0 Z " fill="#10588F" transform="translate(607,132)"/>
<path d="M0 0 C1.32 0.33 2.64 0.66 4 1 C1.69 2.65 -0.62 4.3 -3 6 C-3.66 5.34 -4.32 4.68 -5 4 C-3.35 3.34 -1.7 2.68 0 2 C0 1.34 0 0.68 0 0 Z " fill="#376E98" transform="translate(161,106)"/>
<path d="M0 0 C2.97 0.33 5.94 0.66 9 1 C8.67 1.66 8.34 2.32 8 3 C2.25 2.25 2.25 2.25 0 0 Z " fill="#346AA0" transform="translate(619,217)"/>
<path d="M0 0 C0.99 0 1.98 0 3 0 C1.75023244 3.65316671 1.32901247 4.78065836 -2 7 C-1.34 4.69 -0.68 2.38 0 0 Z " fill="#5785AF" transform="translate(224,181)"/>
<path d="M0 0 C2.31 0 4.62 0 7 0 C6.34 0.66 5.68 1.32 5 2 C3.68 2 2.36 2 1 2 C1 2.66 1 3.32 1 4 C0.34 4 -0.32 4 -1 4 C-0.67 2.68 -0.34 1.36 0 0 Z " fill="#054985" transform="translate(486,163)"/>
<path d="M0 0 C1.32 0 2.64 0 4 0 C4.33 2.31 4.66 4.62 5 7 C1.125 2.25 1.125 2.25 0 0 Z " fill="#5281A5" transform="translate(316,143)"/>
<path d="M0 0 C1.2077558 3.62326739 0.54311128 4.64146369 -1 8 C-1.66 7.67 -2.32 7.34 -3 7 C-3 3.48283697 -2.17554415 2.62878252 0 0 Z " fill="#4A7DA5" transform="translate(87,84)"/>
<path d="M0 0 C0 1.65 0 3.3 0 5 C-2.97 4.505 -2.97 4.505 -6 4 C-5.67 3.01 -5.34 2.02 -5 1 C-2 0 -2 0 0 0 Z " fill="#045492" transform="translate(94,82)"/>
<path d="M0 0 C0.33 0 0.66 0 1 0 C1 2.31 1 4.62 1 7 C0.67 7 0.34 7 0 7 C0 4.69 0 2.38 0 0 Z " fill="#121236" transform="translate(515,194)"/>
<path d="M0 0 C0.33 0 0.66 0 1 0 C1 1.65 1 3.3 1 5 C0.67 5 0.34 5 0 5 C0 3.35 0 1.7 0 0 Z " fill="#5D7777" transform="translate(197,287)"/>
<path d="M0 0 C0.33 0 0.66 0 1 0 C1 1.65 1 3.3 1 5 C0.67 5 0.34 5 0 5 C0 3.35 0 1.7 0 0 Z " fill="#555588" transform="translate(515,136)"/>
<path d="M0 0 C1 4 1 4 1 4 Z " fill="#595966" transform="translate(515,144)"/>
<path d="" fill="#2A2A7F" transform="translate(0,0)"/>
<path d="" fill="#808080" transform="translate(0,0)"/>
<path d="" fill="#00007F" transform="translate(0,0)"/>
<path d="" fill="#FFFFFF" transform="translate(0,0)"/>
<path d="" fill="#000000" transform="translate(0,0)"/>
<path d="" fill="#0000FF" transform="translate(0,0)"/>
<path d="" fill="#0000FF" transform="translate(0,0)"/>
<path d="" fill="#FFFFFF" transform="translate(0,0)"/>
<path d="" fill="#FFFFFF" transform="translate(0,0)"/>
<path d="" fill="#808080" transform="translate(0,0)"/>
<path d="" fill="#00FFFF" transform="translate(0,0)"/>
<path d="" fill="#FFFFFF" transform="translate(0,0)"/>
<path d="" fill="#00FFFF" transform="translate(0,0)"/>
<path d="" fill="#FFFFFF" transform="translate(0,0)"/>
</svg>
